<?xml version="1.0" encoding="UTF-8"?>
<!DOCTYPE svg PUBLIC "-//W3C//DTD SVG 1.1//EN" "http://www.w3.org/Graphics/SVG/1.1/DTD/svg11.dtd">
<!-- Creator: CorelDRAW X7 -->
<svg xmlns="http://www.w3.org/2000/svg" xml:space="preserve" width="1000mm" height="1000mm" version="1.1" style="shape-rendering:geometricPrecision; text-rendering:geometricPrecision; image-rendering:optimizeQuality; fill-rule:evenodd; clip-rule:evenodd"
viewBox="0 0 100000 100000"
 xmlns:xlink="http://www.w3.org/1999/xlink">
 <defs>
  <style type="text/css">
   <![CDATA[
    .fil1 {fill:#FEFEFE}
    .fil3 {fill:#EEEEEF}
    .fil4 {fill:#DCDDDD}
    .fil2 {fill:#DCDDDD}
    .fil0 {fill:#263C92}
    .fil6 {fill:#332C2B;fill-rule:nonzero}
    .fil5 {fill:#263C92;fill-rule:nonzero}
   ]]>
  </style>
 </defs>
 <g id="Layer_x0020_1">
  <metadata id="CorelCorpID_0Corel-Layer"/>
  <g id="_1115630304">
   <g>
    <path class="fil0" d="M30324 36303c0,1394 153,3047 489,4384 163,652 319,1271 529,1900 174,524 381,1029 593,1535l283 632c73,144 134,267 206,411 136,273 263,535 420,794 266,442 508,899 811,1318 255,354 494,722 767,1063l968 1162c46,58 97,94 147,151 33,38 36,50 71,88 28,31 49,50 79,79 200,199 381,439 600,614 125,99 200,200 315,301l159 141c59,60 102,85 158,140 387,387 1602,1304 2046,1598l1123 707c252,152 530,280 781,433 132,80 265,137 407,208l828 388c141,65 293,125 434,181 285,114 576,237 877,337 148,49 296,107 445,154l1437 410c645,163 1326,285 2042,387 354,50 742,102 1095,120 391,19 763,53 1179,53l1089 0c90,-4 150,-19 266,-18 188,2 384,-30 563,-35 263,-7 829,-76 1099,-115 1052,-153 2019,-330 3000,-644 148,-47 306,-90 457,-141 596,-199 1178,-428 1760,-668 64,-27 140,-57 208,-92 76,-38 145,-63 217,-100l1596 -832c900,-503 1871,-1188 2675,-1865 331,-279 665,-554 969,-861 59,-60 103,-85 159,-141l457 -457c60,-59 83,-101 141,-159l431 -466c59,-59 85,-102 141,-158 49,-50 96,-107 139,-161 50,-62 90,-109 144,-173 368,-438 734,-897 1050,-1378 323,-490 655,-970 939,-1489 361,-660 725,-1323 1002,-2025 292,-738 605,-1472 798,-2246 22,-89 41,-148 66,-233l184 -732c181,-714 375,-1855 425,-2601l63 -851c26,-170 24,-1127 25,-1413l0 -46c-1,-107 -17,-159 -18,-257 -7,-576 -71,-1135 -124,-1706 -82,-887 -381,-2199 -618,-3042 -236,-838 -552,-1655 -886,-2457 -37,-88 -64,-135 -98,-219 -196,-483 -575,-1168 -820,-1609 -357,-644 -778,-1244 -1195,-1849 -246,-358 -771,-1026 -1085,-1361 -198,-212 -383,-436 -589,-642 -52,-52 -104,-97 -148,-152l-689 -683c-39,-33 -49,-34 -88,-71 -212,-204 -420,-378 -642,-572 -492,-429 -1016,-823 -1560,-1185 -676,-450 -1365,-890 -2093,-1251l-1450 -679c-85,-34 -136,-57 -226,-91 -82,-31 -131,-58 -212,-87 -79,-28 -147,-53 -218,-81 -145,-57 -297,-114 -451,-165 -312,-103 -604,-196 -920,-295l-974 -257c-693,-146 -1363,-295 -2071,-376 -2978,-338 -5365,-127 -8249,696 -84,24 -159,45 -243,73 -162,54 -299,101 -461,154 -735,243 -1458,552 -2148,897l-411 205c-1056,526 -2057,1185 -2992,1900l-508 408c-38,29 -50,40 -86,72l-730 642c-59,60 -101,83 -159,141 -379,381 -782,749 -1127,1161l-364 409c-44,57 -95,115 -145,172 -381,437 -731,912 -1055,1391l-244 355c-41,62 -76,113 -117,182 -44,74 -79,119 -123,193 -79,133 -157,250 -236,381 -151,251 -309,511 -439,775l-211 405c-69,138 -133,268 -205,410 -461,914 -898,2148 -1174,3103 -269,930 -519,2092 -611,3066 -21,215 -99,889 -105,1109 -11,403 -34,779 -34,1198z"/>
    <path class="fil1" d="M49493 16800c-1504,43 -2910,241 -4297,589 -2637,660 -5231,1941 -7330,3633 -113,90 -226,182 -341,275 -407,327 -903,795 -1279,1166 -102,101 -201,218 -308,309 -175,148 -996,1112 -1139,1290 -2858,3568 -4446,7982 -4320,12786 278,10608 9094,19292 20067,18996 10585,-286 19265,-9092 18978,-20036 -70,-2669 -731,-5554 -1885,-7884 -768,-1551 -1535,-2780 -2618,-4087l-860 -971c-55,-56 -100,-91 -152,-147l-775 -756c-104,-109 -213,-198 -324,-292l-657 -557c-3564,-2842 -7971,-4452 -12760,-4314z"/>
    <path class="fil0" d="M49339 17084c-4622,174 -8765,1897 -12064,4790 -389,342 -1028,955 -1374,1336 -50,55 -86,108 -139,160 -210,207 -638,740 -826,968 -1020,1239 -2059,3008 -2693,4541 -1012,2445 -1580,5130 -1481,8109 347,10411 9065,18942 19925,18572 3660,-124 7134,-1304 9990,-3216 331,-222 745,-510 1056,-757 281,-225 742,-583 991,-821l1232 -1180c798,-872 1463,-1656 2125,-2679 618,-954 1197,-1978 1679,-3142 1006,-2428 1586,-5157 1479,-8116 -149,-4125 -1484,-7609 -3715,-10715 -331,-460 -645,-830 -1004,-1248 -28,-34 -39,-54 -71,-87 -105,-111 -191,-208 -283,-315 -254,-296 -1072,-1095 -1369,-1342 -567,-471 -858,-738 -1490,-1202 -439,-322 -976,-676 -1453,-958 -782,-463 -1555,-852 -2408,-1217 -2344,-1004 -5233,-1590 -8107,-1481z"/>
    <path class="fil1" d="M49159 30250c-56,53 -476,305 -553,321 -72,-142 -512,-515 -671,-632 -235,-175 -509,-347 -808,-494 -1705,-840 -3684,-683 -5453,-112 -172,55 -850,290 -944,371 88,211 447,564 608,760 138,169 300,325 460,473 247,228 479,442 758,649 706,525 1574,983 2745,983 863,0 1697,-195 2455,-568 90,-44 211,-126 291,-151 64,172 217,452 307,679 751,1901 938,3990 956,6043 -124,-9 -502,-108 -611,-158 -10,-1065 -135,-1988 -632,-2906 -178,-330 -365,-531 -591,-781 -126,-139 -298,-265 -459,-369 -207,-134 -460,-265 -735,-356 -1614,-537 -3409,-259 -4996,222 -227,69 -723,280 -871,313 86,313 1107,1769 1291,2016 123,164 228,297 354,456 246,309 506,593 775,878 133,140 270,288 420,408 346,279 514,452 928,708 927,574 2576,1250 3687,1278l161 3729c226,16 457,8 683,1l1 -3556 631 97c60,87 26,3805 22,4464l657 4 12 -4486 640 -77 1 3557c134,0 591,20 683,-15l158 -3713c255,-34 467,-44 717,-95 958,-197 2148,-676 2958,-1177 278,-172 712,-478 940,-714 213,-220 390,-367 607,-608 762,-844 1350,-1638 1939,-2618 70,-118 267,-420 298,-532 -212,-61 -586,-230 -866,-315 -1575,-479 -3446,-796 -5046,-210 -631,231 -991,531 -1340,914 -156,170 -323,430 -454,672 -453,840 -605,1832 -571,2812 -186,58 -411,130 -618,159 -10,-1226 90,-2496 305,-3695 146,-812 355,-1592 649,-2344 66,-169 221,-558 318,-681 61,18 199,104 277,143 766,380 1611,572 2486,572 1309,0 2144,-551 2970,-1180 91,-68 163,-142 249,-209 322,-254 1158,-1149 1325,-1476 -274,-213 -1566,-562 -1961,-648 -1821,-398 -3747,-235 -5248,887l-355 296c-94,80 -265,289 -341,331l-527 -316c2,-3 516,-550 678,-768 678,-910 1244,-1949 1094,-3226 -138,-1173 -761,-2099 -1508,-2839 -208,-207 -550,-537 -793,-666 -146,50 -687,545 -794,648 -120,117 -243,241 -346,376l-318 403c-1014,1442 -1161,2826 -340,4416 209,405 451,745 724,1071l532 581z"/>
    <path class="fil1" d="M41579 46778c1403,250 1999,405 3390,173 719,-120 1617,-159 2331,-13 834,171 1036,575 1548,985 178,142 506,429 853,426 507,-3 1077,-676 1523,-1022 272,-211 464,-307 876,-391 717,-146 1611,-103 2331,17 908,151 1378,147 2312,17 245,-34 879,-121 1066,-199l-393 -1370c-770,169 -1125,335 -2030,352 -1328,24 -2090,-842 -3993,107 -402,200 -1182,694 -1692,696 -516,2 -1275,-486 -1683,-689 -604,-300 -1140,-492 -1940,-438 -726,49 -1318,336 -2062,324 -767,-12 -1360,-182 -2040,-353l-397 1378z"/>
    <path class="fil0" d="M51942 38212c1193,-51 2533,-615 3385,-1106 491,-282 926,-587 1332,-903 108,-84 196,-166 299,-247 54,-41 96,-89 148,-132 64,-53 81,-68 143,-139 88,-100 193,-176 280,-283 68,-85 199,-215 248,-314 -126,-95 -751,-177 -961,-200 -1173,-128 -2351,95 -3182,877 -350,330 -521,511 -827,933 -161,222 -317,457 -463,716 -105,184 -343,589 -402,798z"/>
    <path class="fil0" d="M41616 35088c186,321 840,894 1123,1119 1195,950 3068,1943 4711,2005 -85,-316 -648,-1223 -852,-1499 -757,-1026 -1510,-1675 -2867,-1828 -669,-76 -1349,-7 -1997,156l-118 47z"/>
    <path class="fil2" d="M53293 50847c-744,125 -1391,812 -1240,1721 122,735 823,1376 1716,1228 736,-122 1374,-816 1232,-1715 -116,-733 -825,-1381 -1708,-1234z"/>
    <path class="fil2" d="M45193 50669c-763,100 -1409,784 -1296,1676 95,755 802,1408 1685,1286 749,-103 1396,-795 1277,-1681 -99,-744 -789,-1396 -1666,-1281z"/>
    <path class="fil0" d="M49699 29083c452,-527 898,-1580 933,-2352 31,-698 -208,-1351 -570,-1893 -77,-115 -283,-402 -382,-448 -66,99 -224,264 -352,454 -108,161 -214,343 -296,532 -493,1138 -270,2185 336,3218 84,143 227,388 331,489z"/>
    <path class="fil2" d="M55834 22684l507 167c37,-117 401,-921 452,-982 56,107 213,1141 251,1357l510 207 -199 -1302c1183,262 1780,-1073 618,-1735 -203,-117 -613,-318 -885,-358l-1254 2646z"/>
    <path class="fil2" d="M40632 51581c216,146 246,246 605,398 244,102 565,170 856,104 476,-109 737,-698 490,-1081 -56,-87 -80,-80 -121,-153 611,50 831,-591 648,-955 -130,-259 -756,-690 -981,-761 -143,195 -945,1530 -1128,1821 -68,108 -349,536 -369,627z"/>
    <path class="fil2" d="M51008 52719l-1769 -1 1 409 1180 0c-76,337 -592,673 -1082,588 -967,-168 -1139,-1545 -166,-1912 223,-84 513,-75 725,16 328,142 406,360 473,375l532 0c-91,-325 -410,-615 -655,-760 -307,-180 -762,-248 -1154,-131 -634,188 -1230,861 -1041,1744 143,671 780,1265 1615,1176 756,-81 1333,-695 1341,-1504z"/>
    <path class="fil2" d="M55644 50203l1256 2501c121,-41 295,-198 421,-265l-482 -936c95,25 861,437 1031,527 88,47 124,100 219,51 65,-33 359,-201 393,-241l-1101 -604c91,-102 104,-38 270,-299 276,-436 157,-930 -282,-1203 -524,-326 -1544,257 -1725,469z"/>
    <path class="fil3" d="M63018 42743l2051 959c-383,71 -2558,254 -2683,322l-234 476 2711 1263 171 -414 -2010 -961 2598 -267c38,-20 184,-450 192,-487l-2573 -1311 -223 420z"/>
    <path class="fil2" d="M63695 30267l152 429 2092 -867 -1384 1935c-156,215 -206,221 -148,357 54,130 105,276 160,396l2759 -1152 -188 -407 -2058 844c40,-93 157,-231 219,-316l1273 -1719c61,-80 64,-76 12,-173 -50,-93 -135,-292 -188,-357 -286,107 -2639,977 -2701,1030z"/>
    <path class="fil2" d="M33231 40255l85 461 2196 -541c-39,70 -1159,1194 -1358,1400l-424 420c-58,59 -107,74 -89,173 14,83 85,397 114,452l2901 -717 -131 -428 -2160 519c50,-113 1264,-1265 1389,-1388 150,-147 298,-305 460,-468l-152 -476 -2831 593z"/>
    <path class="fil0" d="M52375 30866c218,134 887,247 1192,273 459,38 928,4 1367,-92 620,-135 1052,-346 1491,-725 64,-55 313,-299 326,-398 -1278,-180 -3152,-130 -4198,767 -39,33 -58,47 -97,78 -63,50 -64,50 -81,97z"/>
    <path class="fil0" d="M42642 29933c81,229 520,567 754,707 687,412 1614,565 2427,499 372,-31 905,-130 1199,-272 -112,-179 -584,-460 -802,-568 -708,-349 -1495,-444 -2292,-452 -239,-2 -1115,10 -1286,86z"/>
    <path class="fil4" d="M61111 26538c83,120 206,230 297,346l1006 -272c81,156 679,829 720,928 -77,147 -497,738 -535,827 37,64 258,286 324,318l1703 -2780c-46,-79 -219,-228 -294,-307 -98,-102 -103,-51 -436,51l-2324 738c-135,43 -349,98 -461,151z"/>
    <path class="fil3" d="M64387 38051c102,38 318,195 426,263 97,61 347,242 434,272l-186 1175 -991 150 -23 450 3218 -580 36 -521 -1430 -841c-91,-53 -1360,-826 -1430,-826l-54 458z"/>
    <path class="fil2" d="M48451 21345l487 1 1 -1213c363,-5 791,-23 1048,-207 235,-169 339,-547 304,-932 -66,-739 -1138,-715 -1840,-676l0 3027z"/>
    <path class="fil0" d="M53407 51335c-510,64 -941,526 -867,1114 64,502 526,934 1112,859 501,-65 933,-524 861,-1109 -62,-501 -524,-937 -1106,-864z"/>
    <path class="fil2" d="M39492 21558c38,78 144,215 200,293l1021 1443c75,103 159,192 71,364 -50,96 -158,186 -250,242 -101,61 -234,121 -372,119 -149,-3 -164,-62 -281,-210l-1085 -1379c-64,-83 -156,-208 -215,-271 -48,19 -359,248 -408,296 25,67 445,596 522,692 186,233 353,460 539,693 92,114 171,222 262,337 107,135 129,218 336,279 377,112 720,-5 969,-182 195,-139 459,-385 478,-745 11,-223 -86,-313 -180,-445l-1272 -1793c-77,41 -281,207 -335,267z"/>
    <path class="fil0" d="M45255 51167c-511,70 -941,520 -860,1123 67,500 542,929 1130,844 494,-71 924,-541 838,-1124 -73,-492 -529,-923 -1108,-843z"/>
    <path class="fil2" d="M52279 21591l1444 349 136 -427 -1026 -241c7,-112 149,-759 194,-821l1033 215c20,-111 113,-356 72,-426 -137,-83 -842,-125 -1018,-213l157 -845 1122 259 108 -377 -1591 -416 -631 2943z"/>
    <path class="fil2" d="M33004 35634l0 -417c-1074,148 -1004,1412 -267,1647 267,84 620,10 810,-119 447,-306 288,-1110 931,-1082 283,13 505,218 489,514 -17,305 -258,412 -557,447l-4 417c580,5 1128,-376 1034,-979 -154,-978 -1394,-1236 -1921,-84 -63,137 -58,268 -159,352 -189,158 -623,157 -710,-67 -65,-167 27,-411 184,-530 43,-32 133,-46 170,-99z"/>
    <path class="fil2" d="M32508 32391l367 101 200 -582 2509 801 130 -433 -2484 -797 164 -560 -392 -115c-59,254 -176,545 -253,796 -46,148 -238,674 -241,789z"/>
    <path class="fil2" d="M42066 19744l119 360 597 -158 388 1261c53,183 331,1159 389,1246l417 -125 -754 -2504 588 -163 -124 -377c-102,5 -1499,407 -1620,460z"/>
    <path class="fil2" d="M60792 22349c49,74 335,311 438,423l-847 984c-236,274 -661,730 -864,986 33,61 280,275 340,300 36,-56 48,-65 103,-123l318 -368c228,-265 677,-748 856,-975 67,-86 140,-156 215,-242 69,-79 150,-167 206,-248 132,72 356,341 446,388 56,-52 225,-251 252,-322 -106,-66 -871,-788 -1069,-954 -62,-52 -89,-95 -155,-140 -74,75 -188,207 -239,291z"/>
    <path class="fil2" d="M35356 25304c28,54 230,257 284,282 78,-82 138,-122 219,-201 35,-35 194,-175 237,-198 147,156 282,307 441,469 173,177 757,842 887,961 95,87 137,156 219,239 94,96 149,152 226,244l331 -299 -1762 -1918 365 -334 -279 -288 -1168 1043z"/>
    <path class="fil0" d="M48963 31339c31,108 146,319 201,433 70,147 135,286 201,432 122,269 260,609 327,923 50,-104 104,-340 149,-467 115,-326 571,-1245 581,-1319l-721 -587c-83,40 -290,223 -369,288 -72,59 -120,99 -185,150 -63,51 -121,111 -184,147z"/>
    <polygon class="fil2" points="35361,45612 35586,45999 38189,44491 37943,44117 "/>
    <polygon class="fil3" points="64533,35099 64574,35545 67543,35275 67515,34826 "/>
    <path class="fil2" d="M33833 28026l2505 1636c52,-73 214,-304 239,-385l-1252 -808c-212,-137 -412,-265 -618,-403 -108,-72 -563,-381 -639,-406l-235 366z"/>
    <path class="fil0" d="M56960 21503c205,170 710,345 991,156 341,-230 257,-624 -5,-831 -109,-86 -447,-242 -607,-276l-379 951z"/>
    <path class="fil0" d="M48903 19765c512,4 966,52 989,-512 23,-576 -460,-536 -990,-538l1 1050z"/>
    <path class="fil0" d="M56170 50326l501 841c333,-89 879,-471 649,-927 -87,-172 -333,-295 -600,-216 -102,30 -419,192 -519,274 -23,18 -15,10 -31,28z"/>
    <path class="fil0" d="M41193 51546c157,86 260,210 535,215 246,4 415,-107 496,-254 118,-216 84,-405 -52,-551 -86,-92 -294,-245 -450,-295 -73,138 -177,288 -266,431 -52,82 -245,370 -263,454z"/>
    <path class="fil0" d="M62779 26455c34,71 86,109 136,173l459 540c52,-39 277,-443 329,-532 57,-97 108,-186 163,-277 49,-80 127,-195 159,-277l-1246 373z"/>
    <path class="fil0" d="M65488 39697l1235 -238c-51,-60 -197,-135 -270,-180 -263,-160 -577,-365 -836,-506l-129 924z"/>
    <path class="fil0" d="M41870 50361c105,139 596,381 800,27 97,-168 81,-319 -34,-441 -69,-75 -237,-211 -369,-246 -29,89 -143,244 -197,334 -66,109 -147,218 -200,326z"/>
   </g>
   <g>
    <path class="fil5" d="M4571 73483c0,316 -155,365 -379,365l-1602 0c-241,-16 -379,-66 -379,-365l0 -11026c17,-232 51,-349 362,-349l1636 0c259,0 362,51 362,349l0 11026z"/>
    <path class="fil5" d="M7243 62740c0,-316 35,-415 276,-498 379,-133 1844,-267 3016,-267 1067,0 4876,0 4876,3493 0,2577 -2205,3625 -4825,3625 -362,0 -552,-17 -999,-51l0 4457c0,316 -121,349 -379,349l-1586 0c-327,-16 -379,-99 -379,-366l0 -10742zm2344 4989l0 0c206,34 430,50 707,50 1188,0 2722,-283 2722,-2295 0,-2128 -1861,-2212 -2620,-2212 -379,0 -603,34 -809,68l0 4389z"/>
    <path class="fil5" d="M16963 62773c0,-349 69,-465 345,-564 413,-133 1757,-234 2757,-234 1274,0 2533,117 3429,649 914,532 1309,1347 1309,2228 0,1514 -1189,2262 -1843,2578 -138,50 -258,99 -397,149 139,34 259,50 380,84 1774,448 2515,1729 2515,3042 0,1381 -826,2296 -1947,2777 -792,316 -1810,483 -3446,483 -1293,0 -2430,-133 -2723,-216 -310,-84 -379,-183 -379,-616l0 -10360zm2292 4374l0 0c448,17 793,17 1206,-17 1896,-199 2034,-1546 2034,-1946 0,-1912 -1913,-1912 -2309,-1912 -345,0 -552,17 -931,68l0 3807zm0 5387l0 0c258,34 655,68 1119,68 1587,0 2690,-600 2690,-2046 0,-2295 -2379,-2295 -3085,-2295 -310,0 -483,17 -724,33l0 4240z"/>
    <path class="fil5" d="M39401 70356c-18,682 -18,1380 -499,2128 -708,1147 -1947,1614 -3517,1614 -2514,0 -3360,-1248 -3618,-1713 -431,-748 -465,-1613 -465,-2261l0 -7733c0,-266 68,-299 309,-299l1086 0c276,0 329,16 329,299l0 7450c0,799 16,3027 2514,3027 845,0 1672,-300 2136,-981 380,-566 380,-1066 380,-1714l0 -7765c0,-233 53,-316 276,-316 294,0 827,0 879,16 137,17 190,84 190,300l0 7948z"/>
    <path class="fil5" d="M48328 73516c0,150 -17,299 -207,332l-948 0c-275,0 -378,-33 -378,-332l0 -5587c0,-782 0,-2029 -2017,-2029 -1844,0 -1861,1064 -1861,1480l0 6136c0,299 -121,332 -362,332l-843 0c-242,17 -329,-33 -329,-316l0 -6701c0,-631 103,-931 691,-1214 1153,-582 2774,-582 2962,-582 3275,0 3292,1763 3292,2744l0 5737z"/>
    <path class="fil5" d="M51138 63755c-586,0 -930,-399 -930,-865 0,-515 397,-881 947,-881 483,0 879,333 914,831 0,466 -346,915 -931,915zm758 9794l0 0c0,283 -85,300 -345,300l-929 0c-259,0 -259,-67 -259,-300l0 -7998c0,-216 0,-316 291,-316l897 0c277,0 345,49 345,316l0 7998z"/>
    <path class="fil5" d="M56928 71803l2242 -6335c50,-167 84,-216 204,-233l863 0c85,0 223,0 223,166 0,34 0,67 -67,266l-3016 7932c-104,233 -120,249 -329,249l-671 0c-139,-16 -173,-66 -259,-265l-3119 -7916c-35,-83 -68,-166 -68,-232 0,-200 171,-200 241,-200l1051 0c259,0 275,33 380,266l2325 6302z"/>
    <path class="fil5" d="M62324 69276c136,2327 1359,3408 2669,3408 1034,0 1810,-565 2380,-1463 240,-399 291,-483 498,-483 104,0 345,51 345,400 0,432 -758,2910 -3447,2910 -1033,0 -2430,-399 -3205,-1929 -448,-831 -551,-1780 -551,-2561 0,-1197 242,-2062 586,-2677 190,-349 1068,-1845 3189,-1845 2722,0 3308,2277 3308,2959 0,465 -293,499 -500,533l-5272 748zm4117 -1430l0 0c-102,-1065 -860,-1863 -1844,-1863 -1395,0 -2103,1032 -2273,2477l4117 -614z"/>
    <path class="fil5" d="M71284 73566c-17,266 -102,282 -310,282l-879 0c-241,0 -344,-16 -344,-282l0 -6951c0,-582 68,-782 447,-998 518,-299 1621,-581 2741,-581 844,0 1775,182 1775,964 0,382 -276,715 -707,715 -310,0 -431,-133 -722,-450 -226,-216 -450,-415 -949,-415 -1018,0 -1034,732 -1052,1165l0 6551z"/>
    <path class="fil5" d="M78867 68993c896,432 2102,997 2102,2561 0,698 -293,1397 -809,1845 -723,615 -1655,649 -2086,649 -2309,0 -2980,-1397 -2980,-1879 0,-465 361,-716 706,-716 379,0 586,284 688,433 54,83 121,200 225,383 241,366 603,831 1481,831 914,0 1327,-648 1327,-1264 0,-1014 -895,-1413 -1653,-1762 -1413,-649 -2603,-1197 -2603,-2728 0,-1180 862,-2310 2741,-2310 1964,0 2687,1147 2687,1679 0,399 -292,631 -637,631 -448,0 -603,-282 -759,-565 -189,-315 -499,-898 -1326,-898 -930,0 -1292,732 -1292,1214 0,932 827,1297 1448,1563l740 333z"/>
    <path class="fil5" d="M83434 63755c-585,0 -929,-399 -929,-865 0,-515 396,-881 947,-881 483,0 880,333 914,831 0,466 -346,915 -932,915zm759 9794l0 0c0,283 -86,300 -344,300l-932 0c-257,0 -257,-67 -257,-300l0 -7998c0,-216 0,-316 291,-316l898 0c274,0 344,49 344,316l0 7998z"/>
    <path class="fil5" d="M88019 65966l0 5404c17,699 17,882 207,1198 189,349 517,582 1033,582 70,0 379,-17 448,-17 311,0 346,233 346,333 0,432 -948,549 -1344,549 -829,0 -1448,-316 -1810,-766 -397,-515 -414,-1063 -414,-1579l0 -5704 -913 0c-224,0 -259,-16 -259,-249 0,-433 0,-466 259,-482l913 0 0 -998c0,-300 51,-382 258,-582l794 -682c171,-150 241,-183 292,-183 172,0 190,216 190,417l0 2028 1499 0c207,0 276,16 276,233 0,449 0,498 -258,498l-1517 0z"/>
    <path class="fil5" d="M94189 75029c-483,1247 -1243,2794 -3085,2794 -207,0 -1206,0 -1206,-782 0,-382 275,-715 739,-715 139,0 777,150 932,150 740,0 1241,-549 1913,-2628l-3343 -8131c-87,-200 -103,-233 -103,-282 0,-217 224,-200 310,-200l1017 0c275,0 293,33 395,299l2431 6402 2240 -6402c85,-250 137,-283 275,-299l843 0c140,0 242,33 242,182 0,51 0,84 -86,300l-3514 9312z"/>
    <path class="fil6" d="M25467 76456c0,-66 7,-113 23,-141 15,-27 48,-49 99,-64 81,-31 242,-55 485,-72 243,-18 466,-27 669,-27 268,0 525,22 770,64 246,44 462,121 649,232 183,117 319,261 410,433 91,172 137,357 137,554 0,284 -82,524 -247,721 -164,198 -358,350 -581,456 -35,20 -93,46 -174,76 10,0 40,5 91,15 46,10 73,18 83,23 380,91 671,262 874,512 202,251 303,551 303,900 0,339 -87,612 -262,820 -175,207 -391,356 -649,448 -258,91 -502,146 -733,167 -230,20 -464,30 -702,30 -248,0 -479,-10 -694,-30 -216,-21 -359,-43 -429,-69 -51,-15 -84,-38 -99,-68 -16,-30 -23,-91 -23,-182l0 -4798zm737 2095l0 0c35,0 83,0 144,0 45,5 88,8 129,8 121,0 243,-5 364,-16 228,-20 416,-67 566,-140 149,-73 263,-159 342,-258 78,-99 130,-198 155,-296 25,-99 38,-191 38,-277 0,-228 -47,-410 -140,-547 -94,-137 -208,-235 -342,-296 -134,-61 -260,-99 -376,-114 -116,-15 -230,-22 -341,-22 -183,0 -362,12 -539,37l0 1921zm0 2566l0 0 7 0c233,25 440,38 623,38 435,0 783,-85 1043,-254 261,-170 392,-432 392,-786 0,-177 -27,-327 -80,-452 -53,-124 -118,-226 -194,-307 -157,-177 -341,-291 -554,-342 -213,-50 -461,-76 -744,-76 -101,0 -228,3 -380,8l-113 7 0 2164z"/>
    <path class="fil6" d="M32991 80339c-76,250 -189,473 -338,668 -149,195 -332,351 -547,467 -215,116 -457,175 -725,175 -273,0 -520,-57 -740,-171 -220,-114 -405,-268 -554,-463 -149,-195 -262,-415 -338,-661 -76,-245 -114,-497 -114,-755 0,-268 39,-527 118,-774 78,-249 193,-470 345,-665 152,-195 336,-348 551,-459 215,-112 456,-167 725,-167 283,0 534,62 751,186 218,124 399,287 543,489 144,203 252,423 323,661 71,238 109,471 114,698 0,264 -38,520 -114,771zm-945 -1974l0 0c-206,-271 -445,-406 -718,-406 -299,0 -538,142 -717,425 -180,284 -270,653 -270,1108 0,512 106,922 319,1231 213,308 463,462 751,462 284,0 517,-145 699,-436 182,-291 274,-702 274,-1234 -21,-496 -134,-879 -338,-1150z"/>
    <path class="fil6" d="M36240 78103l8 8c76,111 136,225 182,341 46,117 69,271 69,464 0,223 -41,416 -122,581 -81,164 -190,298 -327,402 -136,103 -284,181 -444,231 -159,51 -317,76 -474,76 -117,0 -261,-18 -433,-53l-30 -7c-203,187 -304,346 -304,478 0,111 61,183 182,216 122,33 319,57 592,72l813 46c137,10 264,25 383,45 119,20 243,61 372,122 129,60 238,153 326,277 89,124 133,282 133,475 0,141 -40,295 -121,462 -81,167 -209,328 -383,482 -175,155 -406,282 -695,380 -289,99 -630,148 -1025,148 -263,0 -496,-28 -698,-83 -239,-66 -425,-170 -558,-312 -135,-141 -202,-303 -202,-486 0,-192 72,-374 217,-546 144,-172 338,-337 581,-494l-16 0c-162,-45 -297,-102 -406,-170 -109,-69 -163,-181 -163,-338 0,-76 23,-156 68,-239 46,-84 101,-164 167,-240 66,-75 132,-142 198,-201 65,-58 141,-125 228,-201l15 -15c-107,-61 -201,-129 -281,-205 -82,-76 -160,-187 -236,-334 -101,-202 -152,-420 -152,-653 0,-384 128,-697 384,-938 255,-240 583,-360 983,-360 121,0 224,8 307,26 84,18 179,45 285,80 101,41 181,68 239,84 58,15 131,22 217,22 30,0 79,-5 148,-15 68,-10 191,-28 368,-53 147,-25 225,-38 235,-38 36,0 61,30 76,91 15,61 23,109 23,144 0,36 -28,61 -83,76l-646 152zm-1647 3401l0 0c-152,142 -265,262 -338,361 -74,98 -110,216 -110,353 0,223 106,388 319,497 212,109 471,163 774,163 147,0 297,-20 452,-60 154,-41 297,-98 429,-171 131,-73 235,-162 311,-266 76,-104 114,-214 114,-330 0,-101 -25,-186 -76,-254 -51,-69 -115,-121 -194,-156 -78,-36 -157,-60 -235,-72 -79,-13 -161,-22 -247,-27l-235 -7c-132,-5 -301,-13 -509,-23 -207,-10 -352,-18 -432,-23l-23 15zm1104 -3219l0 0c-58,-96 -117,-172 -178,-227 -5,-5 -10,-11 -15,-16 -122,-96 -263,-144 -425,-144 -203,0 -379,67 -528,201 -149,134 -224,349 -224,642 0,319 85,572 254,759 170,188 361,281 574,281 192,0 358,-66 497,-197 139,-132 209,-340 209,-623 0,-91 -8,-182 -23,-273 -36,-172 -83,-307 -141,-403z"/>
    <path class="fil6" d="M40583 80339c-76,250 -189,473 -338,668 -149,195 -332,351 -547,467 -215,116 -457,175 -725,175 -273,0 -520,-57 -740,-171 -220,-114 -405,-268 -554,-463 -149,-195 -262,-415 -338,-661 -76,-245 -114,-497 -114,-755 0,-268 39,-527 118,-774 78,-249 193,-470 345,-665 152,-195 336,-348 550,-459 216,-112 457,-167 726,-167 283,0 534,62 751,186 218,124 399,287 543,489 144,203 252,423 323,661 71,238 109,471 114,698 0,264 -38,520 -114,771zm-945 -1974l0 0c-206,-271 -445,-406 -718,-406 -299,0 -538,142 -717,425 -180,284 -270,653 -270,1108 0,512 106,922 319,1231 213,308 463,462 751,462 284,0 517,-145 699,-436 182,-291 274,-702 274,-1234 -21,-496 -134,-879 -338,-1150z"/>
    <path class="fil6" d="M42071 81428c-5,56 -17,92 -35,107 -17,15 -52,23 -102,23l-387 0c-61,0 -101,-8 -121,-23 -21,-15 -31,-51 -31,-107l0 -3173c0,-137 12,-235 38,-296 25,-61 78,-114 160,-160 121,-70 294,-132 519,-186 226,-53 455,-79 688,-79 222,0 408,33 557,98 150,67 225,180 225,342 0,91 -30,168 -88,232 -58,63 -133,95 -224,95 -61,0 -111,-14 -152,-42 -40,-28 -96,-82 -167,-163 -65,-66 -126,-114 -182,-145 -55,-30 -134,-45 -235,-45 -101,0 -185,16 -251,49 -65,33 -112,76 -140,129 -28,53 -47,108 -57,164 -10,55 -15,116 -15,182l0 7 0 2991z"/>
    <path class="fil6" d="M46611 81406c0,66 -10,107 -31,125 -20,18 -60,27 -121,27l-456 0c-50,0 -87,-11 -110,-31 -22,-20 -34,-61 -34,-121l0 -5056c0,-56 10,-95 31,-118 20,-23 58,-34 113,-34l456 0c56,0 95,9 118,26 22,18 34,55 34,110l0 5072z"/>
    <path class="fil6" d="M50612 81406c0,40 -7,74 -19,102 -13,28 -37,44 -73,50l-417 0c-66,0 -110,-9 -133,-27 -23,-18 -34,-59 -34,-125l0 -2551c0,-127 -6,-237 -19,-331 -13,-93 -47,-187 -103,-280 -55,-94 -145,-170 -269,-228 -124,-58 -290,-87 -497,-87 -188,0 -339,24 -456,72 -116,48 -200,109 -250,182 -51,73 -83,143 -95,209 -13,65 -19,136 -19,212l0 2802c0,66 -11,107 -34,125 -23,18 -65,27 -126,27l-371 0c-56,0 -94,-11 -115,-31 -20,-20 -30,-58 -30,-114l0 -3059c0,-152 20,-267 61,-346 40,-78 121,-148 243,-209 116,-60 244,-110 383,-147 139,-39 270,-65 391,-80 122,-15 227,-25 315,-31 89,-5 161,-7 217,-7 339,0 609,42 812,125 202,84 349,189 440,315 91,127 147,253 167,380 21,126 31,270 31,432l0 2620z"/>
    <path class="fil6" d="M54598 80753c0,96 -7,175 -20,239 -12,63 -41,125 -87,186 -60,86 -148,159 -262,220 -113,61 -237,110 -372,148 -134,38 -267,65 -398,80 -132,15 -256,23 -372,23 -547,0 -981,-169 -1302,-505 -322,-337 -482,-814 -482,-1431 0,-268 38,-532 114,-790 76,-258 191,-492 345,-702 154,-210 343,-377 565,-501 223,-124 476,-186 760,-186 177,0 328,23 452,68 123,46 249,106 375,182l0 -1867c0,-66 9,-111 27,-133 17,-23 57,-34 117,-34l388 0c55,0 95,9 117,26 23,18 35,60 35,125l0 4852zm-684 -2544l0 0c-101,-86 -206,-154 -315,-204 -109,-51 -247,-76 -414,-76 -172,0 -331,39 -478,117 -147,79 -274,191 -383,338 -109,147 -193,319 -251,516 -58,198 -87,408 -87,630 0,517 115,920 346,1211 230,291 532,437 907,437 156,0 280,-19 372,-57 91,-38 158,-87 201,-148 43,-61 70,-123 83,-186 13,-63 19,-130 19,-201l0 -8 0 -2369z"/>
    <path class="fil6" d="M58614 80339c-76,250 -189,473 -338,668 -149,195 -332,351 -547,467 -215,116 -457,175 -725,175 -273,0 -520,-57 -740,-171 -220,-114 -405,-268 -554,-463 -149,-195 -262,-415 -338,-661 -76,-245 -114,-497 -114,-755 0,-268 39,-527 118,-774 78,-249 193,-470 345,-665 152,-195 336,-348 551,-459 215,-112 456,-167 725,-167 283,0 534,62 751,186 218,124 399,287 543,489 144,203 252,423 323,661 71,238 108,471 114,698 0,264 -38,520 -114,771zm-946 -1974l0 0c-205,-271 -444,-406 -717,-406 -299,0 -538,142 -717,425 -180,284 -270,653 -270,1108 0,512 106,922 319,1231 213,308 463,462 752,462 283,0 516,-145 698,-436 182,-291 273,-702 273,-1234 -20,-496 -133,-879 -338,-1150z"/>
    <path class="fil6" d="M62478 81406c0,40 -6,74 -19,102 -13,28 -37,44 -72,50l-418 0c-65,0 -110,-9 -132,-27 -23,-18 -35,-59 -35,-125l0 -2551c0,-127 -6,-237 -19,-331 -13,-93 -46,-187 -102,-280 -56,-94 -146,-170 -270,-228 -124,-58 -290,-87 -497,-87 -187,0 -339,24 -455,72 -117,48 -200,109 -251,182 -51,73 -82,143 -95,209 -12,65 -19,136 -19,212l0 2802c0,66 -11,107 -34,125 -23,18 -65,27 -125,27l-372 0c-56,0 -94,-11 -114,-31 -20,-20 -31,-58 -31,-114l0 -3059c0,-152 20,-267 61,-346 41,-78 122,-148 243,-209 117,-60 244,-110 384,-147 139,-39 269,-65 390,-80 122,-15 227,-25 315,-31 89,-5 161,-7 217,-7 339,0 610,42 812,125 203,84 350,189 441,315 91,127 146,253 167,380 20,126 30,270 30,432l0 2620z"/>
    <path class="fil6" d="M63746 79470c30,501 157,885 380,1154 222,268 488,402 797,402 217,0 413,-58 588,-175 175,-116 328,-281 460,-493 55,-96 95,-157 117,-182 23,-25 57,-38 103,-38 35,0 69,13 102,38 33,25 49,73 49,144 0,66 -26,171 -79,315 -53,144 -140,295 -258,452 -120,157 -277,290 -475,398 -197,109 -432,164 -706,164 -121,0 -246,-14 -376,-42 -129,-28 -257,-76 -383,-144 -127,-69 -247,-160 -361,-274 -114,-114 -211,-254 -292,-421 -91,-172 -154,-357 -190,-554 -35,-198 -53,-403 -53,-615 0,-263 23,-496 68,-699 46,-202 109,-377 190,-524 36,-70 84,-147 144,-231 61,-84 147,-174 259,-270 111,-96 251,-176 421,-243 169,-65 363,-98 581,-98 278,0 515,52 710,155 194,104 345,231 451,380 106,149 182,297 228,444 45,147 68,271 68,372 0,91 -19,152 -56,183 -39,30 -91,50 -156,60l-8 0 -2323 342zm1815 -653l0 0c-21,-243 -108,-445 -262,-608 -155,-162 -338,-243 -551,-243 -293,0 -524,102 -691,304 -167,203 -270,479 -311,828l1815 -281z"/>
    <path class="fil6" d="M68506 79341l15 7c137,66 252,128 346,186 93,59 183,131 269,217 86,86 157,192 213,319 56,126 83,273 83,440 0,162 -31,318 -95,467 -63,149 -150,275 -262,376 -136,121 -286,201 -447,239 -162,38 -319,57 -471,57 -238,0 -443,-32 -615,-95 -172,-64 -309,-142 -410,-236 -102,-93 -175,-188 -220,-284 -46,-96 -69,-178 -69,-243 0,-102 32,-181 95,-239 64,-59 136,-88 217,-88 70,0 130,19 178,57 48,38 90,85 126,140 25,41 57,99 98,175 71,112 154,203 250,274 97,71 231,106 403,106 187,0 331,-57 433,-171 101,-114 152,-249 152,-406 0,-202 -62,-360 -186,-471 -124,-111 -300,-220 -528,-326l-15 -8c-213,-101 -377,-185 -494,-250 -116,-66 -225,-144 -326,-232 -101,-88 -181,-196 -239,-323 -58,-126 -88,-273 -88,-440 0,-293 104,-543 312,-748 207,-205 506,-307 896,-307 202,0 379,26 531,79 152,54 276,122 372,206 96,83 167,168 212,254 46,86 69,162 69,228 0,86 -27,155 -80,208 -53,54 -120,80 -201,80 -86,0 -152,-21 -198,-65 -45,-43 -91,-107 -136,-193l-8 -23c-66,-111 -140,-204 -223,-277 -84,-73 -202,-110 -354,-110 -187,0 -329,58 -425,175 -96,116 -144,243 -144,379 0,188 57,332 171,433 113,101 269,195 467,281l326 152z"/>
    <path class="fil6" d="M70818 76824c-73,84 -174,125 -300,125 -127,0 -227,-38 -300,-114 -73,-75 -110,-169 -110,-281 0,-116 39,-212 118,-288 78,-76 178,-114 300,-114 106,0 198,36 277,106 78,71 120,162 125,274 0,111 -37,208 -110,292zm34 4597l0 0c0,61 -10,99 -30,114 -21,15 -61,23 -122,23l-410 0c-50,0 -82,-9 -95,-27 -12,-18 -19,-54 -19,-110l0 -3652c0,-55 7,-93 19,-114 13,-20 50,-30 110,-30l395 0c61,0 101,9 122,27 20,17 30,56 30,117l0 3652z"/>
    <path class="fil6" d="M74238 80760c-5,188 -28,331 -68,429 -41,99 -127,184 -259,255 -131,71 -296,122 -493,155 -197,33 -390,50 -577,50 -106,0 -223,-8 -349,-23 -127,-15 -267,-56 -422,-122 -154,-65 -286,-171 -394,-315 -110,-144 -164,-335 -164,-573 0,-212 48,-393 145,-543 96,-149 232,-276 410,-379 176,-104 377,-195 599,-274 223,-78 527,-173 911,-284l0 -387c0,-107 -3,-202 -11,-285 -8,-84 -29,-166 -65,-247 -35,-81 -92,-148 -170,-201 -79,-53 -186,-80 -323,-80 -101,0 -190,17 -266,50 -76,32 -138,75 -186,128 -48,54 -85,104 -110,152 -25,49 -51,103 -76,164l-8 7c-35,106 -75,186 -121,239 -45,54 -116,80 -212,80 -71,0 -140,-26 -205,-80 -66,-53 -99,-133 -99,-239 0,-111 34,-221 102,-330 69,-109 164,-206 285,-292 268,-187 600,-281 994,-281 259,0 466,40 623,121 157,81 271,184 342,308 70,124 116,248 136,372 21,124 31,259 31,406l0 8 0 2011zm-661 -1268l0 0c-273,87 -481,156 -622,209 -142,53 -266,115 -372,186 -253,157 -380,367 -380,630 0,46 7,103 19,171 13,68 43,146 91,232 48,86 127,161 236,224 108,63 251,94 429,94 136,0 246,-17 330,-53 83,-35 144,-80 182,-136 38,-56 62,-113 72,-171 10,-58 15,-123 15,-194l0 -1192z"/>
    <polygon class="fil6" points="22330,79220 12256,79220 12256,78863 22330,78863 "/>
    <polygon class="fil6" points="87744,79220 78093,79220 78093,78863 87744,78863 "/>
   </g>
  </g>
 </g>
</svg>
