<?xml version="1.0" encoding="utf-8"?>
<!-- Generator: Adobe Illustrator 24.1.2, SVG Export Plug-In . SVG Version: 6.00 Build 0)  -->
<svg version="1.1" id="Layer_1" xmlns="http://www.w3.org/2000/svg" xmlns:xlink="http://www.w3.org/1999/xlink" x="0px" y="0px"
	 viewBox="0 0 2834.6 2834.6" style="enable-background:new 0 0 2834.6 2834.6;" xml:space="preserve">
<style type="text/css">
	.st0{fill-rule:evenodd;clip-rule:evenodd;fill:#263C92;}
	.st1{fill-rule:evenodd;clip-rule:evenodd;fill:#FEFEFE;}
	.st2{fill-rule:evenodd;clip-rule:evenodd;fill:#DCDDDD;}
	.st3{fill-rule:evenodd;clip-rule:evenodd;fill:#EEEEEF;}
	.st4{fill:#FFFFFF;}
</style>
<g id="Layer_x0020_1">
	<g id="_1115630304">
		<g>
			<path class="st0" d="M859.6,1029.1c0,39.5,4.3,86.4,13.9,124.3c4.6,18.5,9,36,15,53.9c4.9,14.9,10.8,29.2,16.8,43.5l8,17.9
				c2.1,4.1,3.8,7.6,5.8,11.7c3.9,7.7,7.5,15.2,11.9,22.5c7.5,12.5,14.4,25.5,23,37.4c7.2,10,14,20.5,21.7,30.1l27.4,32.9
				c1.3,1.6,2.7,2.7,4.2,4.3c0.9,1.1,1,1.4,2,2.5c0.8,0.9,1.4,1.4,2.2,2.2c5.7,5.6,10.8,12.4,17,17.4c3.5,2.8,5.7,5.7,8.9,8.5l4.5,4
				c1.7,1.7,2.9,2.4,4.5,4c11,11,45.4,37,58,45.3l31.8,20c7.1,4.3,15,7.9,22.1,12.3c3.7,2.3,7.5,3.9,11.5,5.9l23.5,11
				c4,1.8,8.3,3.5,12.3,5.1c8.1,3.2,16.3,6.7,24.9,9.6c4.2,1.4,8.4,3,12.6,4.4l40.7,11.6c18.3,4.6,37.6,8.1,57.9,11
				c10,1.4,21,2.9,31,3.4c11.1,0.5,21.6,1.5,33.4,1.5h30.9c2.6-0.1,4.3-0.5,7.5-0.5c5.3,0.1,10.9-0.9,16-1
				c7.5-0.2,23.5-2.2,31.2-3.3c29.8-4.3,57.2-9.4,85-18.3c4.2-1.3,8.7-2.6,13-4c16.9-5.6,33.4-12.1,49.9-18.9c1.8-0.8,4-1.6,5.9-2.6
				c2.2-1.1,4.1-1.8,6.2-2.8l45.2-23.6c25.5-14.3,53-33.7,75.8-52.9c9.4-7.9,18.9-15.7,27.5-24.4c1.7-1.7,2.9-2.4,4.5-4l13-13
				c1.7-1.7,2.4-2.9,4-4.5l12.2-13.2c1.7-1.7,2.4-2.9,4-4.5c1.4-1.4,2.7-3,3.9-4.6c1.4-1.8,2.6-3.1,4.1-4.9
				c10.4-12.4,20.8-25.4,29.8-39.1c9.2-13.9,18.6-27.5,26.6-42.2c10.2-18.7,20.6-37.5,28.4-57.4c8.3-20.9,17.1-41.7,22.6-63.7
				c0.6-2.5,1.2-4.2,1.9-6.6l5.2-20.7c5.1-20.2,10.6-52.6,12-73.7l1.8-24.1c0.7-4.8,0.7-31.9,0.7-40.1v-1.3c0-3-0.5-4.5-0.5-7.3
				c-0.2-16.3-2-32.2-3.5-48.4c-2.3-25.1-10.8-62.3-17.5-86.2c-6.7-23.8-15.6-46.9-25.1-69.6c-1-2.5-1.8-3.8-2.8-6.2
				c-5.6-13.7-16.3-33.1-23.2-45.6c-10.1-18.3-22.1-35.3-33.9-52.4c-7-10.1-21.9-29.1-30.8-38.6c-5.6-6-10.9-12.4-16.7-18.2
				c-1.5-1.5-2.9-2.7-4.2-4.3l-19.5-19.4c-1.1-0.9-1.4-1-2.5-2c-6-5.8-11.9-10.7-18.2-16.2c-13.9-12.2-28.8-23.3-44.2-33.6
				c-19.2-12.8-38.7-25.2-59.3-35.5l-41.1-19.2c-2.4-1-3.9-1.6-6.4-2.6c-2.3-0.9-3.7-1.6-6-2.5c-2.2-0.8-4.2-1.5-6.2-2.3
				c-4.1-1.6-8.4-3.2-12.8-4.7c-8.8-2.9-17.1-5.6-26.1-8.4l-27.6-7.3c-19.6-4.1-38.6-8.4-58.7-10.7c-84.4-9.6-152.1-3.6-233.8,19.7
				c-2.4,0.7-4.5,1.3-6.9,2.1c-4.6,1.5-8.5,2.9-13.1,4.4c-20.8,6.9-41.3,15.6-60.9,25.4l-11.7,5.8c-29.9,14.9-58.3,33.6-84.8,53.9
				l-14.4,11.6c-1.1,0.8-1.4,1.1-2.4,2l-20.7,18.2c-1.7,1.7-2.9,2.4-4.5,4c-10.7,10.8-22.2,21.2-31.9,32.9l-10.3,11.6
				c-1.2,1.6-2.7,3.3-4.1,4.9c-10.8,12.4-20.7,25.9-29.9,39.4l-6.9,10.1c-1.2,1.8-2.2,3.2-3.3,5.2c-1.2,2.1-2.2,3.4-3.5,5.5
				c-2.2,3.8-4.5,7.1-6.7,10.8c-4.3,7.1-8.8,14.5-12.4,22l-6,11.5c-2,3.9-3.8,7.6-5.8,11.6c-13.1,25.9-25.5,60.9-33.3,88
				c-7.6,26.4-14.7,59.3-17.3,86.9c-0.6,6.1-2.8,25.2-3,31.4C860.2,1006.5,859.6,1017.2,859.6,1029.1z"/>
			<path class="st1" d="M1403,476.2c-42.6,1.2-82.5,6.8-121.8,16.7c-74.7,18.7-148.3,55-207.8,103c-3.2,2.6-6.4,5.2-9.7,7.8
				c-11.5,9.3-25.6,22.5-36.3,33.1c-2.9,2.9-5.7,6.2-8.7,8.8c-5,4.2-28.2,31.5-32.3,36.6c-81,101.1-126,226.3-122.5,362.4
				c7.9,300.7,257.8,546.9,568.8,538.5c300-8.1,546.1-257.7,538-567.9c-2-75.7-20.7-157.4-53.4-223.5c-21.8-44-43.5-78.8-74.2-115.9
				l-24.4-27.5c-1.6-1.6-2.8-2.6-4.3-4.2l-22-21.4c-2.9-3.1-6-5.6-9.2-8.3l-18.6-15.8C1663.6,517.9,1538.7,472.3,1403,476.2z"/>
			<path class="st0" d="M1398.6,484.3c-131,4.9-248.5,53.8-342,135.8c-11,9.7-29.1,27.1-38.9,37.9c-1.4,1.6-2.4,3.1-3.9,4.5
				c-6,5.9-18.1,21-23.4,27.4c-28.9,35.1-58.4,85.3-76.3,128.7c-28.7,69.3-44.8,145.4-42,229.9c9.8,295.1,257,536.9,564.8,526.5
				c103.7-3.5,202.2-37,283.2-91.2c9.4-6.3,21.1-14.5,29.9-21.5c8-6.4,21-16.5,28.1-23.3l34.9-33.4c22.6-24.7,41.5-46.9,60.2-75.9
				c17.5-27,33.9-56.1,47.6-89.1c28.5-68.8,45-146.2,41.9-230.1c-4.2-116.9-42.1-215.7-105.3-303.7c-9.4-13-18.3-23.5-28.5-35.4
				c-0.8-1-1.1-1.5-2-2.5c-3-3.1-5.4-5.9-8-8.9c-7.2-8.4-30.4-31-38.8-38c-16.1-13.4-24.3-20.9-42.2-34.1
				c-12.4-9.1-27.7-19.2-41.2-27.2c-22.2-13.1-44.1-24.2-68.3-34.5C1561.9,497.8,1480.1,481.2,1398.6,484.3z"/>
			<path class="st1" d="M1393.5,857.5c-1.6,1.5-13.5,8.6-15.7,9.1c-2-4-14.5-14.6-19-17.9c-6.7-5-14.4-9.8-22.9-14
				c-48.3-23.8-104.4-19.4-154.6-3.2c-4.9,1.6-24.1,8.2-26.8,10.5c2.5,6,12.7,16,17.2,21.5c3.9,4.8,8.5,9.2,13,13.4
				c7,6.5,13.6,12.5,21.5,18.4c20,14.9,44.6,27.9,77.8,27.9c24.5,0,48.1-5.5,69.6-16.1c2.6-1.2,6-3.6,8.2-4.3
				c1.8,4.9,6.2,12.8,8.7,19.2c21.3,53.9,26.6,113.1,27.1,171.3c-3.5-0.3-14.2-3.1-17.3-4.5c-0.3-30.2-3.8-56.4-17.9-82.4
				c-5-9.4-10.3-15.1-16.8-22.1c-3.6-3.9-8.4-7.5-13-10.5c-5.9-3.8-13-7.5-20.8-10.1c-45.8-15.2-96.6-7.3-141.6,6.3
				c-6.4,2-20.5,7.9-24.7,8.9c2.4,8.9,31.4,50.1,36.6,57.1c3.5,4.6,6.5,8.4,10,12.9c7,8.8,14.3,16.8,22,24.9
				c3.8,4,7.7,8.2,11.9,11.6c9.8,7.9,14.6,12.8,26.3,20.1c26.3,16.3,73,35.4,104.5,36.2l4.6,105.7c6.4,0.5,13,0.2,19.4,0l0-100.8
				l17.9,2.7c1.7,2.5,0.7,107.9,0.6,126.5l18.6,0.1l0.3-127.2l18.1-2.2l0,100.8c3.8,0,16.8,0.6,19.4-0.4l4.5-105.3
				c7.2-1,13.2-1.2,20.3-2.7c27.2-5.6,60.9-19.2,83.8-33.4c7.9-4.9,20.2-13.5,26.6-20.2c6-6.2,11.1-10.4,17.2-17.2
				c21.6-23.9,38.3-46.4,55-74.2c2-3.3,7.6-11.9,8.4-15.1c-6-1.7-16.6-6.5-24.5-8.9c-44.6-13.6-97.7-22.6-143-6
				c-17.9,6.5-28.1,15.1-38,25.9c-4.4,4.8-9.2,12.2-12.9,19c-12.8,23.8-17.1,51.9-16.2,79.7c-5.3,1.6-11.7,3.7-17.5,4.5
				c-0.3-34.8,2.6-70.8,8.6-104.7c4.1-23,10.1-45.1,18.4-66.4c1.9-4.8,6.3-15.8,9-19.3c1.7,0.5,5.6,2.9,7.9,4.1
				c21.7,10.8,45.7,16.2,70.5,16.2c37.1,0,60.8-15.6,84.2-33.4c2.6-1.9,4.6-4,7.1-5.9c9.1-7.2,32.8-32.6,37.6-41.8
				c-7.8-6-44.4-15.9-55.6-18.4c-51.6-11.3-106.2-6.7-148.8,25.1l-10.1,8.4c-2.7,2.3-7.5,8.2-9.7,9.4l-14.9-9
				c0.1-0.1,14.6-15.6,19.2-21.8c19.2-25.8,35.3-55.2,31-91.4c-3.9-33.3-21.6-59.5-42.7-80.5c-5.9-5.9-15.6-15.2-22.5-18.9
				c-4.1,1.4-19.5,15.4-22.5,18.4c-3.4,3.3-6.9,6.8-9.8,10.7l-9,11.4c-28.7,40.9-32.9,80.1-9.6,125.2c5.9,11.5,12.8,21.1,20.5,30.4
				L1393.5,857.5z"/>
			<path class="st1" d="M1178.6,1326c39.8,7.1,56.7,11.5,96.1,4.9c20.4-3.4,45.8-4.5,66.1-0.4c23.6,4.8,29.4,16.3,43.9,27.9
				c5,4,14.3,12.2,24.2,12.1c14.4-0.1,30.5-19.2,43.2-29c7.7-6,13.2-8.7,24.8-11.1c20.3-4.1,45.7-2.9,66.1,0.5
				c25.7,4.3,39.1,4.2,65.5,0.5c6.9-1,24.9-3.4,30.2-5.6l-11.1-38.8c-21.8,4.8-31.9,9.5-57.5,10c-37.6,0.7-59.2-23.9-113.2,3
				c-11.4,5.7-33.5,19.7-48,19.7c-14.6,0.1-36.1-13.8-47.7-19.5c-17.1-8.5-32.3-13.9-55-12.4c-20.6,1.4-37.4,9.5-58.5,9.2
				c-21.7-0.3-38.6-5.2-57.8-10L1178.6,1326z"/>
			<path class="st0" d="M1472.4,1083.2c33.8-1.4,71.8-17.4,96-31.4c13.9-8,26.2-16.6,37.8-25.6c3.1-2.4,5.6-4.7,8.5-7
				c1.5-1.2,2.7-2.5,4.2-3.7c1.8-1.5,2.3-1.9,4.1-3.9c2.5-2.8,5.5-5,7.9-8c1.9-2.4,5.6-6.1,7-8.9c-3.6-2.7-21.3-5-27.2-5.7
				c-33.3-3.6-66.6,2.7-90.2,24.9c-9.9,9.4-14.8,14.5-23.4,26.4c-4.6,6.3-9,13-13.1,20.3C1480.8,1065.8,1474,1077.3,1472.4,1083.2z"
				/>
			<path class="st0" d="M1179.7,994.6c5.3,9.1,23.8,25.3,31.8,31.7c33.9,26.9,87,55.1,133.5,56.8c-2.4-9-18.4-34.7-24.2-42.5
				c-21.5-29.1-42.8-47.5-81.3-51.8c-19-2.2-38.2-0.2-56.6,4.4L1179.7,994.6z"/>
			<path class="st2" d="M1510.7,1441.3c-21.1,3.5-39.4,23-35.1,48.8c3.5,20.8,23.3,39,48.6,34.8c20.9-3.5,38.9-23.1,34.9-48.6
				C1555.8,1455.5,1535.7,1437.2,1510.7,1441.3z"/>
			<path class="st2" d="M1281.1,1436.3c-21.6,2.8-39.9,22.2-36.7,47.5c2.7,21.4,22.7,39.9,47.8,36.5c21.2-2.9,39.6-22.5,36.2-47.7
				C1325.5,1451.5,1305.9,1433,1281.1,1436.3z"/>
			<path class="st0" d="M1408.8,824.4c12.8-14.9,25.5-44.8,26.4-66.7c0.9-19.8-5.9-38.3-16.2-53.7c-2.2-3.3-8-11.4-10.8-12.7
				c-1.9,2.8-6.3,7.5-10,12.9c-3.1,4.6-6.1,9.7-8.4,15.1c-14,32.3-7.7,61.9,9.5,91.2C1401.8,814.6,1405.8,821.5,1408.8,824.4z"/>
			<path class="st2" d="M1582.7,643l14.4,4.7c1-3.3,11.4-26.1,12.8-27.8c1.6,3,6,32.3,7.1,38.5l14.5,5.9l-5.6-36.9
				c33.5,7.4,50.5-30.4,17.5-49.2c-5.8-3.3-17.4-9-25.1-10.1L1582.7,643z"/>
			<path class="st2" d="M1151.8,1462.1c6.1,4.1,7,7,17.1,11.3c6.9,2.9,16,4.8,24.3,2.9c13.5-3.1,20.9-19.8,13.9-30.6
				c-1.6-2.5-2.3-2.3-3.4-4.3c17.3,1.4,23.6-16.8,18.4-27.1c-3.7-7.3-21.4-19.6-27.8-21.6c-4.1,5.5-26.8,43.4-32,51.6
				C1160.3,1447.4,1152.3,1459.6,1151.8,1462.1z"/>
			<path class="st2" d="M1445.9,1494.4l-50.1,0l0,11.6h33.4c-2.2,9.6-16.8,19.1-30.7,16.7c-27.4-4.8-32.3-43.8-4.7-54.2
				c6.3-2.4,14.5-2.1,20.6,0.5c9.3,4,11.5,10.2,13.4,10.6h15.1c-2.6-9.2-11.6-17.4-18.6-21.5c-8.7-5.1-21.6-7-32.7-3.7
				c-18,5.3-34.9,24.4-29.5,49.4c4.1,19,22.1,35.9,45.8,33.3C1429.3,1534.7,1445.7,1517.3,1445.9,1494.4z"/>
			<path class="st2" d="M1577.3,1423.1l35.6,70.9c3.4-1.2,8.4-5.6,11.9-7.5l-13.7-26.5c2.7,0.7,24.4,12.4,29.2,14.9
				c2.5,1.3,3.5,2.8,6.2,1.4c1.8-0.9,10.2-5.7,11.1-6.8l-31.2-17.1c2.6-2.9,2.9-1.1,7.7-8.5c7.8-12.4,4.5-26.4-8-34.1
				C1611.4,1400.5,1582.4,1417.1,1577.3,1423.1z"/>
			<path class="st3" d="M1786.3,1211.6l58.1,27.2c-10.9,2-72.5,7.2-76.1,9.1l-6.6,13.5l76.8,35.8l4.8-11.7l-57-27.2l73.6-7.6
				c1.1-0.6,5.2-12.8,5.4-13.8l-72.9-37.2L1786.3,1211.6z"/>
			<path class="st2" d="M1805.5,858l4.3,12.2l59.3-24.6l-39.2,54.9c-4.4,6.1-5.8,6.3-4.2,10.1c1.5,3.7,3,7.8,4.5,11.2l78.2-32.7
				l-5.3-11.5l-58.3,23.9c1.1-2.6,4.5-6.5,6.2-9l36.1-48.7c1.7-2.3,1.8-2.2,0.3-4.9c-1.4-2.6-3.8-8.3-5.3-10.1
				C1874,831.8,1807.3,856.5,1805.5,858z"/>
			<path class="st2" d="M942,1141.1l2.4,13.1l62.2-15.3c-1.1,2-32.9,33.8-38.5,39.7l-12,11.9c-1.6,1.7-3,2.1-2.5,4.9
				c0.4,2.4,2.4,11.3,3.2,12.8l82.2-20.3l-3.7-12.1l-61.2,14.7c1.4-3.2,35.8-35.9,39.4-39.3c4.3-4.2,8.4-8.6,13-13.3l-4.3-13.5
				L942,1141.1z"/>
			<path class="st0" d="M1484.6,874.9c6.2,3.8,25.1,7,33.8,7.7c13,1.1,26.3,0.1,38.7-2.6c17.6-3.8,29.8-9.8,42.3-20.6
				c1.8-1.6,8.9-8.5,9.2-11.3c-36.2-5.1-89.3-3.7-119,21.7c-1.1,0.9-1.6,1.3-2.7,2.2C1485.2,873.6,1485.1,873.6,1484.6,874.9z"/>
			<path class="st0" d="M1208.7,848.5c2.3,6.5,14.7,16.1,21.4,20c19.5,11.7,45.8,16,68.8,14.1c10.5-0.9,25.7-3.7,34-7.7
				c-3.2-5.1-16.6-13-22.7-16.1c-20.1-9.9-42.4-12.6-65-12.8C1238.4,846,1213.6,846.3,1208.7,848.5z"/>
			<path class="st2" d="M1732.3,752.3c2.4,3.4,5.8,6.5,8.4,9.8l28.5-7.7c2.3,4.4,19.2,23.5,20.4,26.3c-2.2,4.2-14.1,20.9-15.2,23.4
				c1,1.8,7.3,8.1,9.2,9l48.3-78.8c-1.3-2.2-6.2-6.5-8.3-8.7c-2.8-2.9-2.9-1.4-12.4,1.4l-65.9,20.9
				C1741.5,749.2,1735.5,750.8,1732.3,752.3z"/>
			<path class="st3" d="M1825.1,1078.6c2.9,1.1,9,5.5,12.1,7.5c2.7,1.7,9.8,6.9,12.3,7.7l-5.3,33.3l-28.1,4.3l-0.7,12.8l91.2-16.4
				l1-14.8l-40.5-23.8c-2.6-1.5-38.6-23.4-40.5-23.4L1825.1,1078.6z"/>
			<path class="st2" d="M1373.4,605.1l13.8,0l0-34.4c10.3-0.1,22.4-0.7,29.7-5.9c6.7-4.8,9.6-15.5,8.6-26.4
				c-1.9-20.9-32.3-20.3-52.2-19.2V605.1z"/>
			<path class="st0" d="M1513.9,1455.2c-14.5,1.8-26.7,14.9-24.6,31.6c1.8,14.2,14.9,26.5,31.5,24.3c14.2-1.8,26.4-14.9,24.4-31.4
				C1543.5,1465.5,1530.4,1453.1,1513.9,1455.2z"/>
			<path class="st2" d="M1119.5,611.1c1.1,2.2,4.1,6.1,5.7,8.3l28.9,40.9c2.1,2.9,4.5,5.4,2,10.3c-1.4,2.7-4.5,5.3-7.1,6.9
				c-2.9,1.7-6.6,3.4-10.5,3.4c-4.2-0.1-4.6-1.8-8-6l-30.8-39.1c-1.8-2.4-4.4-5.9-6.1-7.7c-1.4,0.5-10.2,7-11.6,8.4
				c0.7,1.9,12.6,16.9,14.8,19.6c5.3,6.6,10,13,15.3,19.6c2.6,3.2,4.8,6.3,7.4,9.6c3,3.8,3.7,6.2,9.5,7.9
				c10.7,3.2,20.4-0.1,27.5-5.2c5.5-3.9,13-10.9,13.5-21.1c0.3-6.3-2.4-8.9-5.1-12.6l-36.1-50.8
				C1126.8,604.7,1121,609.4,1119.5,611.1z"/>
			<path class="st0" d="M1282.8,1450.4c-14.5,2-26.7,14.7-24.4,31.8c1.9,14.2,15.4,26.3,32,23.9c14-2,26.2-15.3,23.8-31.9
				C1312.2,1460.4,1299.2,1448.1,1282.8,1450.4z"/>
			<path class="st2" d="M1481.9,612l40.9,9.9l3.9-12.1l-29.1-6.8c0.2-3.2,4.2-21.5,5.5-23.3l29.3,6.1c0.6-3.1,3.2-10.1,2-12.1
				c-3.9-2.4-23.9-3.5-28.9-6l4.5-24l31.8,7.3l3.1-10.7l-45.1-11.8L1481.9,612z"/>
			<path class="st2" d="M935.5,1010.1v-11.8c-30.4,4.2-28.5,40-7.6,46.7c7.6,2.4,17.6,0.3,23-3.4c12.7-8.7,8.2-31.5,26.4-30.7
				c8,0.4,14.3,6.2,13.9,14.6c-0.5,8.6-7.3,11.7-15.8,12.7l-0.1,11.8c16.4,0.1,32-10.7,29.3-27.8c-4.4-27.7-39.5-35-54.5-2.4
				c-1.8,3.9-1.6,7.6-4.5,10c-5.4,4.5-17.7,4.5-20.1-1.9c-1.8-4.7,0.8-11.7,5.2-15C931.9,1012,934.5,1011.6,935.5,1010.1z"/>
			<path class="st2" d="M921.5,918.2l10.4,2.9l5.7-16.5l71.1,22.7l3.7-12.3L942,892.4l4.6-15.9l-11.1-3.3c-1.7,7.2-5,15.4-7.2,22.6
				C927,900,921.6,914.9,921.5,918.2z"/>
			<path class="st2" d="M1192.4,559.7l3.4,10.2l16.9-4.5l11,35.7c1.5,5.2,9.4,32.9,11,35.3l11.8-3.5l-21.4-71l16.7-4.6l-3.5-10.7
				C1235.5,546.8,1195.9,558.2,1192.4,559.7z"/>
			<path class="st2" d="M1723.2,633.5c1.4,2.1,9.5,8.8,12.4,12l-24,27.9c-6.7,7.8-18.7,20.7-24.5,27.9c0.9,1.7,7.9,7.8,9.6,8.5
				c1-1.6,1.4-1.8,2.9-3.5l9-10.4c6.5-7.5,19.2-21.2,24.3-27.6c1.9-2.4,4-4.4,6.1-6.9c2-2.2,4.3-4.7,5.8-7c3.7,2,10.1,9.7,12.6,11
				c1.6-1.5,6.4-7.1,7.1-9.1c-3-1.9-24.7-22.3-30.3-27c-1.8-1.5-2.5-2.7-4.4-4C1727.9,627.4,1724.7,631.1,1723.2,633.5z"/>
			<path class="st2" d="M1002.2,717.3c0.8,1.5,6.5,7.3,8.1,8c2.2-2.3,3.9-3.5,6.2-5.7c1-1,5.5-5,6.7-5.6c4.2,4.4,8,8.7,12.5,13.3
				c4.9,5,21.5,23.9,25.1,27.2c2.7,2.5,3.9,4.4,6.2,6.8c2.7,2.7,4.2,4.3,6.4,6.9l9.4-8.5l-49.9-54.4l10.3-9.5l-7.9-8.2L1002.2,717.3
				z"/>
			<path class="st0" d="M1387.9,888.3c0.9,3.1,4.1,9,5.7,12.3c2,4.2,3.8,8.1,5.7,12.2c3.5,7.6,7.4,17.3,9.3,26.2
				c1.4-2.9,2.9-9.6,4.2-13.2c3.3-9.2,16.2-35.3,16.5-37.4l-20.4-16.6c-2.4,1.1-8.2,6.3-10.5,8.2c-2,1.7-3.4,2.8-5.2,4.3
				C1391.4,885.6,1389.7,887.3,1387.9,888.3z"/>
			<polygon class="st2" points="1002.4,1292.9 1008.7,1303.9 1082.5,1261.2 1075.5,1250.6 			"/>
			<polygon class="st3" points="1829.3,994.9 1830.4,1007.6 1914.6,999.9 1913.8,987.2 			"/>
			<path class="st2" d="M959,794.4l71,46.4c1.5-2.1,6.1-8.6,6.8-10.9l-35.5-22.9c-6-3.9-11.7-7.5-17.5-11.4
				c-3.1-2-16-10.8-18.1-11.5L959,794.4z"/>
			<path class="st0" d="M1614.6,609.5c5.8,4.8,20.1,9.8,28.1,4.4c9.7-6.5,7.3-17.7-0.1-23.6c-3.1-2.4-12.7-6.9-17.2-7.8
				L1614.6,609.5z"/>
			<path class="st0" d="M1386.2,560.3c14.5,0.1,27.4,1.5,28-14.5c0.7-16.3-13-15.2-28.1-15.3L1386.2,560.3z"/>
			<path class="st0" d="M1592.2,1426.6l14.2,23.8c9.4-2.5,24.9-13.4,18.4-26.3c-2.5-4.9-9.4-8.4-17-6.1c-2.9,0.9-11.9,5.4-14.7,7.8
				C1592.4,1426.3,1592.7,1426.1,1592.2,1426.6z"/>
			<path class="st0" d="M1167.7,1461.1c4.5,2.4,7.4,6,15.2,6.1c7,0.1,11.8-3,14.1-7.2c3.3-6.1,2.4-11.5-1.5-15.6
				c-2.4-2.6-8.3-6.9-12.8-8.4c-2.1,3.9-5,8.2-7.5,12.2C1173.7,1450.6,1168.2,1458.8,1167.7,1461.1z"/>
			<path class="st0" d="M1779.6,749.9c1,2,2.4,3.1,3.9,4.9l13,15.3c1.5-1.1,7.9-12.6,9.3-15.1c1.6-2.7,3.1-5.3,4.6-7.9
				c1.4-2.3,3.6-5.5,4.5-7.9L1779.6,749.9z"/>
			<path class="st0" d="M1856.4,1125.3l35-6.7c-1.4-1.7-5.6-3.8-7.7-5.1c-7.5-4.5-16.4-10.3-23.7-14.3L1856.4,1125.3z"/>
			<path class="st0" d="M1186.9,1427.6c3,3.9,16.9,10.8,22.7,0.8c2.7-4.8,2.3-9-1-12.5c-2-2.1-6.7-6-10.5-7
				c-0.8,2.5-4.1,6.9-5.6,9.5C1190.7,1421.4,1188.4,1424.5,1186.9,1427.6z"/>
		</g>
		<g>
			<path class="st4" d="M129.6,2083c0,9-4.4,10.3-10.7,10.3H73.4c-6.8-0.5-10.7-1.9-10.7-10.3v-312.5c0.5-6.6,1.4-9.9,10.3-9.9h46.4
				c7.3,0,10.3,1.4,10.3,9.9V2083z"/>
			<path class="st4" d="M205.3,1778.5c0-9,1-11.8,7.8-14.1c10.7-3.8,52.3-7.6,85.5-7.6c30.2,0,138.2,0,138.2,99
				c0,73-62.5,102.8-136.8,102.8c-10.3,0-15.6-0.5-28.3-1.4v126.3c0,9-3.4,9.9-10.7,9.9h-45c-9.3-0.5-10.7-2.8-10.7-10.4V1778.5z
				 M271.8,1919.9L271.8,1919.9c5.8,1,12.2,1.4,20,1.4c33.7,0,77.2-8,77.2-65.1c0-60.3-52.8-62.7-74.3-62.7c-10.7,0-17.1,1-22.9,1.9
				V1919.9z"/>
			<path class="st4" d="M480.8,1779.4c0-9.9,2-13.2,9.8-16c11.7-3.8,49.8-6.6,78.2-6.6c36.1,0,71.8,3.3,97.2,18.4
				c25.9,15.1,37.1,38.2,37.1,63.2c0,42.9-33.7,64.1-52.2,73.1c-3.9,1.4-7.3,2.8-11.3,4.2c3.9,1,7.3,1.4,10.8,2.4
				c50.3,12.7,71.3,49,71.3,86.2c0,39.1-23.4,65.1-55.2,78.7c-22.5,9-51.3,13.7-97.7,13.7c-36.7,0-68.9-3.8-77.2-6.1
				c-8.8-2.4-10.7-5.2-10.7-17.5V1779.4z M545.8,1903.4L545.8,1903.4c12.7,0.5,22.5,0.5,34.2-0.5c53.7-5.6,57.7-43.8,57.7-55.2
				c0-54.2-54.2-54.2-65.5-54.2c-9.8,0-15.6,0.5-26.4,1.9V1903.4z M545.8,2056.1L545.8,2056.1c7.3,1,18.6,1.9,31.7,1.9
				c45,0,76.3-17,76.3-58c0-65.1-67.4-65.1-87.4-65.1c-8.8,0-13.7,0.5-20.5,0.9V2056.1z"/>
			<path class="st4" d="M1116.9,1994.3c-0.5,19.3-0.5,39.1-14.1,60.3c-20.1,32.5-55.2,45.8-99.7,45.8c-71.3,0-95.2-35.4-102.6-48.6
				c-12.2-21.2-13.2-45.7-13.2-64.1v-219.2c0-7.5,1.9-8.5,8.8-8.5h30.8c7.8,0,9.3,0.5,9.3,8.5v211.2c0,22.6,0.5,85.8,71.3,85.8
				c24,0,47.4-8.5,60.5-27.8c10.8-16,10.8-30.2,10.8-48.6V1769c0-6.6,1.5-9,7.8-9c8.3,0,23.4,0,24.9,0.5c3.9,0.5,5.4,2.4,5.4,8.5
				V1994.3z"/>
			<path class="st4" d="M1369.9,2083.9c0,4.3-0.5,8.5-5.9,9.4h-26.9c-7.8,0-10.7-0.9-10.7-9.4v-158.4c0-22.2,0-57.5-57.2-57.5
				c-52.3,0-52.8,30.2-52.8,42v173.9c0,8.5-3.4,9.4-10.3,9.4h-23.9c-6.9,0.5-9.3-0.9-9.3-9v-189.9c0-17.9,2.9-26.4,19.6-34.4
				c32.7-16.5,78.6-16.5,84-16.5c92.8,0,93.3,50,93.3,77.8V2083.9z"/>
			<path class="st4" d="M1449.6,1807.2c-16.6,0-26.4-11.3-26.4-24.5c0-14.6,11.3-25,26.8-25c13.7,0,24.9,9.4,25.9,23.6
				C1476,1794.5,1466.2,1807.2,1449.6,1807.2z M1471.1,2084.9L1471.1,2084.9c0,8-2.4,8.5-9.8,8.5H1435c-7.3,0-7.3-1.9-7.3-8.5
				v-226.7c0-6.1,0-9,8.2-9h25.4c7.9,0,9.8,1.4,9.8,9V2084.9z"/>
			<path class="st4" d="M1613.7,2035.4l63.6-179.6c1.4-4.7,2.4-6.1,5.8-6.6h24.5c2.4,0,6.3,0,6.3,4.7c0,1,0,1.9-1.9,7.5l-85.5,224.8
				c-2.9,6.6-3.4,7.1-9.3,7.1h-19c-3.9-0.5-4.9-1.9-7.3-7.5l-88.4-224.4c-1-2.4-1.9-4.7-1.9-6.6c0-5.7,4.8-5.7,6.8-5.7h29.8
				c7.3,0,7.8,0.9,10.8,7.5L1613.7,2035.4z"/>
			<path class="st4" d="M1766.7,1963.7c3.9,66,38.5,96.6,75.7,96.6c29.3,0,51.3-16,67.5-41.5c6.8-11.3,8.2-13.7,14.1-13.7
				c2.9,0,9.8,1.4,9.8,11.3c0,12.2-21.5,82.5-97.7,82.5c-29.3,0-68.9-11.3-90.9-54.7c-12.7-23.6-15.6-50.5-15.6-72.6
				c0-33.9,6.9-58.5,16.6-75.9c5.4-9.9,30.3-52.3,90.4-52.3c77.2,0,93.8,64.5,93.8,83.9c0,13.2-8.3,14.1-14.2,15.1L1766.7,1963.7z
				 M1883.4,1923.2L1883.4,1923.2c-2.9-30.2-24.4-52.8-52.3-52.8c-39.5,0-59.6,29.3-64.4,70.2L1883.4,1923.2z"/>
			<path class="st4" d="M2020.6,2085.3c-0.5,7.5-2.9,8-8.8,8h-24.9c-6.8,0-9.8-0.5-9.8-8v-197c0-16.5,1.9-22.2,12.7-28.3
				c14.7-8.5,45.9-16.5,77.7-16.5c23.9,0,50.3,5.2,50.3,27.3c0,10.8-7.8,20.3-20,20.3c-8.8,0-12.2-3.8-20.5-12.8
				c-6.4-6.1-12.8-11.8-26.9-11.8c-28.9,0-29.3,20.7-29.8,33V2085.3z"/>
			<path class="st4" d="M2235.6,1955.7c25.4,12.2,59.6,28.3,59.6,72.6c0,19.8-8.3,39.6-22.9,52.3c-20.5,17.4-46.9,18.4-59.1,18.4
				c-65.5,0-84.5-39.6-84.5-53.3c0-13.2,10.2-20.3,20-20.3c10.7,0,16.6,8.1,19.5,12.3c1.5,2.4,3.4,5.7,6.4,10.9
				c6.8,10.4,17.1,23.6,42,23.6c25.9,0,37.6-18.4,37.6-35.8c0-28.7-25.4-40.1-46.9-49.9c-40.1-18.4-73.8-33.9-73.8-77.3
				c0-33.4,24.4-65.5,77.7-65.5c55.7,0,76.2,32.5,76.2,47.6c0,11.3-8.3,17.9-18.1,17.9c-12.7,0-17.1-8-21.5-16
				c-5.4-8.9-14.1-25.5-37.6-25.5c-26.4,0-36.6,20.7-36.6,34.4c0,26.4,23.4,36.8,41,44.3L2235.6,1955.7z"/>
			<path class="st4" d="M2365.1,1807.2c-16.6,0-26.3-11.3-26.3-24.5c0-14.6,11.2-25,26.8-25c13.7,0,24.9,9.4,25.9,23.6
				C2391.5,1794.5,2381.7,1807.2,2365.1,1807.2z M2386.6,2084.9L2386.6,2084.9c0,8-2.4,8.5-9.8,8.5h-26.4c-7.3,0-7.3-1.9-7.3-8.5
				v-226.7c0-6.1,0-9,8.2-9h25.5c7.8,0,9.8,1.4,9.8,9V2084.9z"/>
			<path class="st4" d="M2495,1869.9v153.2c0.5,19.8,0.5,25,5.9,34c5.4,9.9,14.7,16.5,29.3,16.5c2,0,10.7-0.5,12.7-0.5
				c8.8,0,9.8,6.6,9.8,9.4c0,12.2-26.9,15.6-38.1,15.6c-23.5,0-41-9-51.3-21.7c-11.3-14.6-11.7-30.1-11.7-44.8v-161.7h-25.9
				c-6.3,0-7.3-0.5-7.3-7.1c0-12.3,0-13.2,7.3-13.7h25.9v-28.3c0-8.5,1.4-10.8,7.3-16.5l22.5-19.3c4.8-4.3,6.8-5.2,8.3-5.2
				c4.9,0,5.4,6.1,5.4,11.8v57.5h42.5c5.9,0,7.8,0.5,7.8,6.6c0,12.7,0,14.1-7.3,14.1H2495z"/>
			<path class="st4" d="M2669.9,2126.8c-13.7,35.3-35.2,79.2-87.4,79.2c-5.9,0-34.2,0-34.2-22.2c0-10.8,7.8-20.3,20.9-20.3
				c3.9,0,22,4.3,26.4,4.3c21,0,35.2-15.6,54.2-74.5l-94.8-230.5c-2.5-5.7-2.9-6.6-2.9-8c0-6.2,6.3-5.7,8.8-5.7h28.8
				c7.8,0,8.3,0.9,11.2,8.5l68.9,181.5l63.5-181.5c2.4-7.1,3.9-8,7.8-8.5h23.9c4,0,6.9,0.9,6.9,5.2c0,1.4,0,2.4-2.4,8.5
				L2669.9,2126.8z"/>
			<path class="st4" d="M721.9,2167.3c0-1.9,0.2-3.2,0.7-4c0.4-0.8,1.4-1.4,2.8-1.8c2.3-0.9,6.9-1.6,13.7-2c6.9-0.5,13.2-0.8,19-0.8
				c7.6,0,14.9,0.6,21.8,1.8c7,1.2,13.1,3.4,18.4,6.6c5.2,3.3,9,7.4,11.6,12.3c2.6,4.9,3.9,10.1,3.9,15.7c0,8.1-2.3,14.9-7,20.4
				c-4.6,5.6-10.1,9.9-16.5,12.9c-1,0.6-2.6,1.3-4.9,2.2c0.3,0,1.1,0.1,2.6,0.4c1.3,0.3,2.1,0.5,2.4,0.7c10.8,2.6,19,7.4,24.8,14.5
				c5.7,7.1,8.6,15.6,8.6,25.5c0,9.6-2.5,17.3-7.4,23.2c-5,5.9-11.1,10.1-18.4,12.7c-7.3,2.6-14.2,4.1-20.8,4.7
				c-6.5,0.6-13.2,0.9-19.9,0.9c-7,0-13.6-0.3-19.7-0.9c-6.1-0.6-10.2-1.2-12.2-2c-1.4-0.4-2.4-1.1-2.8-1.9
				c-0.5-0.9-0.7-2.6-0.7-5.2V2167.3z M742.8,2226.6L742.8,2226.6c1,0,2.4,0,4.1,0c1.3,0.1,2.5,0.2,3.7,0.2c3.4,0,6.9-0.1,10.3-0.5
				c6.5-0.6,11.8-1.9,16-4c4.2-2.1,7.5-4.5,9.7-7.3c2.2-2.8,3.7-5.6,4.4-8.4c0.7-2.8,1.1-5.4,1.1-7.9c0-6.5-1.3-11.6-4-15.5
				c-2.7-3.9-5.9-6.7-9.7-8.4c-3.8-1.7-7.4-2.8-10.7-3.2s-6.5-0.6-9.7-0.6c-5.2,0-10.3,0.3-15.3,1V2226.6z M742.8,2299.4
				L742.8,2299.4h0.2c6.6,0.7,12.5,1.1,17.7,1.1c12.3,0,22.2-2.4,29.6-7.2c7.4-4.8,11.1-12.2,11.1-22.3c0-5-0.8-9.3-2.3-12.8
				c-1.5-3.5-3.3-6.4-5.5-8.7c-4.5-5-9.7-8.2-15.7-9.7c-6-1.4-13.1-2.2-21.1-2.2c-2.9,0-6.5,0.1-10.8,0.2l-3.2,0.2V2299.4z"/>
			<path class="st4" d="M935.2,2277.3c-2.2,7.1-5.4,13.4-9.6,18.9s-9.4,9.9-15.5,13.2c-6.1,3.3-13,5-20.6,5c-7.7,0-14.7-1.6-21-4.8
				s-11.5-7.6-15.7-13.1c-4.2-5.5-7.4-11.8-9.6-18.7c-2.2-6.9-3.2-14.1-3.2-21.4c0-7.6,1.1-14.9,3.3-21.9c2.2-7.1,5.5-13.3,9.8-18.9
				c4.3-5.5,9.5-9.9,15.6-13c6.1-3.2,12.9-4.7,20.6-4.7c8,0,15.1,1.8,21.3,5.3c6.2,3.5,11.3,8.1,15.4,13.9c4.1,5.8,7.1,12,9.2,18.7
				c2,6.7,3.1,13.4,3.2,19.8C938.4,2263,937.3,2270.2,935.2,2277.3z M908.4,2221.4L908.4,2221.4c-5.8-7.7-12.6-11.5-20.4-11.5
				c-8.5,0-15.3,4-20.3,12c-5.1,8.1-7.7,18.5-7.7,31.4c0,14.5,3,26.1,9,34.9c6,8.7,13.1,13.1,21.3,13.1c8.1,0,14.7-4.1,19.8-12.4
				s7.8-19.9,7.8-35C917.4,2239.9,914.2,2229.1,908.4,2221.4z"/>
			<path class="st4" d="M1027.3,2213.9l0.2,0.2c2.2,3.1,3.9,6.4,5.2,9.7c1.3,3.3,2,7.7,2,13.2c0,6.3-1.2,11.8-3.5,16.5
				c-2.3,4.6-5.4,8.4-9.3,11.4c-3.9,2.9-8.1,5.1-12.6,6.5c-4.5,1.4-9,2.2-13.4,2.2c-3.3,0-7.4-0.5-12.3-1.5l-0.9-0.2
				c-5.8,5.3-8.6,9.8-8.6,13.5c0,3.1,1.7,5.2,5.2,6.1c3.5,0.9,9,1.6,16.8,2l23,1.3c3.9,0.3,7.5,0.7,10.9,1.3
				c3.4,0.6,6.9,1.7,10.5,3.5c3.7,1.7,6.7,4.3,9.2,7.9c2.5,3.5,3.8,8,3.8,13.5c0,4-1.1,8.4-3.4,13.1c-2.3,4.7-5.9,9.3-10.9,13.7
				c-5,4.4-11.5,8-19.7,10.8c-8.2,2.8-17.9,4.2-29.1,4.2c-7.5,0-14.1-0.8-19.8-2.4c-6.8-1.9-12-4.8-15.8-8.8
				c-3.8-4-5.7-8.6-5.7-13.8c0-5.4,2-10.6,6.2-15.5c4.1-4.9,9.6-9.6,16.5-14h-0.5c-4.6-1.3-8.4-2.9-11.5-4.8c-3.1-2-4.6-5.1-4.6-9.6
				c0-2.2,0.7-4.4,1.9-6.8c1.3-2.4,2.9-4.6,4.7-6.8c1.9-2.1,3.7-4,5.6-5.7c1.8-1.6,4-3.5,6.5-5.7l0.4-0.4c-3-1.7-5.7-3.7-8-5.8
				c-2.3-2.2-4.5-5.3-6.7-9.5c-2.9-5.7-4.3-11.9-4.3-18.5c0-10.9,3.6-19.8,10.9-26.6c7.2-6.8,16.5-10.2,27.9-10.2
				c3.4,0,6.3,0.2,8.7,0.7c2.4,0.5,5.1,1.3,8.1,2.3c2.9,1.2,5.1,1.9,6.8,2.4c1.6,0.4,3.7,0.6,6.2,0.6c0.9,0,2.2-0.1,4.2-0.4
				c1.9-0.3,5.4-0.8,10.4-1.5c4.2-0.7,6.4-1.1,6.7-1.1c1,0,1.7,0.9,2.2,2.6c0.4,1.7,0.7,3.1,0.7,4.1c0,1-0.8,1.7-2.4,2.2
				L1027.3,2213.9z M980.6,2310.3L980.6,2310.3c-4.3,4-7.5,7.4-9.6,10.2c-2.1,2.8-3.1,6.1-3.1,10c0,6.3,3,11,9,14.1
				c6,3.1,13.4,4.6,21.9,4.6c4.2,0,8.4-0.6,12.8-1.7c4.4-1.2,8.4-2.8,12.2-4.8c3.7-2.1,6.7-4.6,8.8-7.5c2.2-2.9,3.2-6.1,3.2-9.4
				c0-2.9-0.7-5.3-2.2-7.2c-1.4-2-3.3-3.4-5.5-4.4c-2.2-1-4.5-1.7-6.7-2c-2.2-0.4-4.6-0.6-7-0.8l-6.7-0.2c-3.7-0.1-8.5-0.4-14.4-0.7
				c-5.9-0.3-10-0.5-12.2-0.7L980.6,2310.3z M1011.9,2219.1L1011.9,2219.1c-1.6-2.7-3.3-4.9-5-6.4c-0.1-0.1-0.3-0.3-0.4-0.5
				c-3.5-2.7-7.5-4.1-12-4.1c-5.8,0-10.7,1.9-15,5.7s-6.3,9.9-6.3,18.2c0,9,2.4,16.2,7.2,21.5c4.8,5.3,10.2,8,16.3,8
				c5.4,0,10.1-1.9,14.1-5.6c3.9-3.7,5.9-9.6,5.9-17.7c0-2.6-0.2-5.2-0.7-7.7C1014.9,2225.7,1013.5,2221.8,1011.9,2219.1z"/>
			<path class="st4" d="M1150.4,2277.3c-2.2,7.1-5.4,13.4-9.6,18.9s-9.4,9.9-15.5,13.2c-6.1,3.3-13,5-20.6,5c-7.7,0-14.7-1.6-21-4.8
				s-11.5-7.6-15.7-13.1s-7.4-11.8-9.6-18.7c-2.2-6.9-3.2-14.1-3.2-21.4c0-7.6,1.1-14.9,3.3-21.9c2.2-7.1,5.5-13.3,9.8-18.9
				c4.3-5.5,9.5-9.9,15.6-13c6.1-3.2,13-4.7,20.6-4.7c8,0,15.1,1.8,21.3,5.3c6.2,3.5,11.3,8.1,15.4,13.9c4.1,5.8,7.1,12,9.2,18.7
				c2,6.7,3.1,13.4,3.2,19.8C1153.6,2263,1152.5,2270.2,1150.4,2277.3z M1123.6,2221.4L1123.6,2221.4c-5.8-7.7-12.6-11.5-20.4-11.5
				c-8.5,0-15.3,4-20.3,12c-5.1,8.1-7.7,18.5-7.7,31.4c0,14.5,3,26.1,9,34.9c6,8.7,13.1,13.1,21.3,13.1c8.1,0,14.7-4.1,19.8-12.4
				s7.8-19.9,7.8-35C1132.6,2239.9,1129.4,2229.1,1123.6,2221.4z"/>
			<path class="st4" d="M1192.6,2308.2c-0.1,1.6-0.5,2.6-1,3c-0.5,0.4-1.5,0.7-2.9,0.7h-11c-1.7,0-2.9-0.2-3.4-0.7
				c-0.6-0.4-0.9-1.4-0.9-3v-89.9c0-3.9,0.3-6.7,1.1-8.4c0.7-1.7,2.2-3.2,4.5-4.5c3.4-2,8.3-3.7,14.7-5.3c6.4-1.5,12.9-2.2,19.5-2.2
				c6.3,0,11.6,0.9,15.8,2.8c4.3,1.9,6.4,5.1,6.4,9.7c0,2.6-0.9,4.8-2.5,6.6c-1.6,1.8-3.8,2.7-6.3,2.7c-1.7,0-3.1-0.4-4.3-1.2
				c-1.1-0.8-2.7-2.3-4.7-4.6c-1.8-1.9-3.6-3.2-5.2-4.1c-1.6-0.9-3.8-1.3-6.7-1.3c-2.9,0-5.2,0.5-7.1,1.4c-1.8,0.9-3.2,2.2-4,3.7
				c-0.8,1.5-1.3,3.1-1.6,4.6c-0.3,1.6-0.4,3.3-0.4,5.2v0.2V2308.2z"/>
			<path class="st4" d="M1321.3,2307.6c0,1.9-0.3,3-0.9,3.5c-0.6,0.5-1.7,0.8-3.4,0.8H1304c-1.4,0-2.5-0.3-3.1-0.9
				c-0.6-0.6-1-1.7-1-3.4v-143.3c0-1.6,0.3-2.7,0.9-3.3c0.6-0.7,1.6-1,3.2-1h12.9c1.6,0,2.7,0.3,3.3,0.7c0.6,0.5,1,1.6,1,3.1V2307.6
				z"/>
			<path class="st4" d="M1434.7,2307.6c0,1.1-0.2,2.1-0.5,2.9c-0.4,0.8-1,1.2-2.1,1.4h-11.8c-1.9,0-3.1-0.3-3.8-0.8
				c-0.7-0.5-1-1.7-1-3.5v-72.3c0-3.6-0.2-6.7-0.5-9.4c-0.4-2.6-1.3-5.3-2.9-7.9c-1.6-2.7-4.1-4.8-7.6-6.5
				c-3.5-1.6-8.2-2.5-14.1-2.5c-5.3,0-9.6,0.7-12.9,2c-3.3,1.4-5.7,3.1-7.1,5.2c-1.4,2.1-2.4,4.1-2.7,5.9c-0.4,1.8-0.5,3.9-0.5,6
				v79.4c0,1.9-0.3,3-1,3.5c-0.7,0.5-1.8,0.8-3.6,0.8H1352c-1.6,0-2.7-0.3-3.3-0.9c-0.6-0.6-0.9-1.6-0.9-3.2v-86.7
				c0-4.3,0.6-7.6,1.7-9.8c1.1-2.2,3.4-4.2,6.9-5.9c3.3-1.7,6.9-3.1,10.9-4.2c3.9-1.1,7.7-1.8,11.1-2.3c3.5-0.4,6.4-0.7,8.9-0.9
				c2.5-0.1,4.6-0.2,6.2-0.2c9.6,0,17.3,1.2,23,3.5c5.7,2.4,9.9,5.4,12.5,8.9c2.6,3.6,4.2,7.2,4.7,10.8c0.6,3.6,0.9,7.7,0.9,12.2
				V2307.6z"/>
			<path class="st4" d="M1547.7,2289.1c0,2.7-0.2,5-0.6,6.8c-0.3,1.8-1.2,3.5-2.5,5.3c-1.7,2.4-4.2,4.5-7.4,6.2
				c-3.2,1.7-6.7,3.1-10.5,4.2c-3.8,1.1-7.6,1.8-11.3,2.3c-3.7,0.4-7.3,0.7-10.5,0.7c-15.5,0-27.8-4.8-36.9-14.3
				c-9.1-9.6-13.7-23.1-13.7-40.6c0-7.6,1.1-15.1,3.2-22.4c2.2-7.3,5.4-13.9,9.8-19.9c4.4-6,9.7-10.7,16-14.2
				c6.3-3.5,13.5-5.3,21.5-5.3c5,0,9.3,0.7,12.8,1.9c3.5,1.3,7.1,3,10.6,5.2V2152c0-1.9,0.3-3.1,0.8-3.8c0.5-0.7,1.6-1,3.3-1h11
				c1.6,0,2.7,0.3,3.3,0.7c0.7,0.5,1,1.7,1,3.5V2289.1z M1528.3,2216.9L1528.3,2216.9c-2.9-2.4-5.8-4.4-8.9-5.8
				c-3.1-1.4-7-2.2-11.7-2.2c-4.9,0-9.4,1.1-13.5,3.3c-4.2,2.2-7.8,5.4-10.9,9.6c-3.1,4.2-5.5,9-7.1,14.6
				c-1.6,5.6-2.5,11.6-2.5,17.9c0,14.7,3.3,26.1,9.8,34.3c6.5,8.2,15.1,12.4,25.7,12.4c4.4,0,7.9-0.5,10.5-1.6
				c2.6-1.1,4.5-2.5,5.7-4.2c1.2-1.7,2-3.5,2.4-5.3c0.4-1.8,0.5-3.7,0.5-5.7v-0.2V2216.9z"/>
			<path class="st4" d="M1661.5,2277.3c-2.2,7.1-5.4,13.4-9.6,18.9s-9.4,9.9-15.5,13.2c-6.1,3.3-13,5-20.6,5c-7.7,0-14.7-1.6-21-4.8
				s-11.5-7.6-15.7-13.1s-7.4-11.8-9.6-18.7c-2.2-6.9-3.2-14.1-3.2-21.4c0-7.6,1.1-14.9,3.3-21.9c2.2-7.1,5.5-13.3,9.8-18.9
				c4.3-5.5,9.5-9.9,15.6-13c6.1-3.2,12.9-4.7,20.6-4.7c8,0,15.1,1.8,21.3,5.3c6.2,3.5,11.3,8.1,15.4,13.9c4.1,5.8,7.1,12,9.2,18.7
				c2,6.7,3.1,13.4,3.2,19.8C1664.7,2263,1663.7,2270.2,1661.5,2277.3z M1634.7,2221.4L1634.7,2221.4c-5.8-7.7-12.6-11.5-20.3-11.5
				c-8.5,0-15.3,4-20.3,12c-5.1,8.1-7.7,18.5-7.7,31.4c0,14.5,3,26.1,9,34.9c6,8.7,13.1,13.1,21.3,13.1c8,0,14.6-4.1,19.8-12.4
				s7.7-19.9,7.7-35C1643.7,2239.9,1640.5,2229.1,1634.7,2221.4z"/>
			<path class="st4" d="M1771,2307.6c0,1.1-0.2,2.1-0.5,2.9s-1,1.2-2,1.4h-11.8c-1.8,0-3.1-0.3-3.7-0.8c-0.7-0.5-1-1.7-1-3.5v-72.3
				c0-3.6-0.2-6.7-0.5-9.4c-0.4-2.6-1.3-5.3-2.9-7.9c-1.6-2.7-4.1-4.8-7.7-6.5c-3.5-1.6-8.2-2.5-14.1-2.5c-5.3,0-9.6,0.7-12.9,2
				c-3.3,1.4-5.7,3.1-7.1,5.2s-2.3,4.1-2.7,5.9c-0.3,1.8-0.5,3.9-0.5,6v79.4c0,1.9-0.3,3-1,3.5c-0.7,0.5-1.8,0.8-3.5,0.8h-10.5
				c-1.6,0-2.7-0.3-3.2-0.9c-0.6-0.6-0.9-1.6-0.9-3.2v-86.7c0-4.3,0.6-7.6,1.7-9.8c1.2-2.2,3.5-4.2,6.9-5.9
				c3.3-1.7,6.9-3.1,10.9-4.2c3.9-1.1,7.6-1.8,11.1-2.3c3.5-0.4,6.4-0.7,8.9-0.9c2.5-0.1,4.6-0.2,6.2-0.2c9.6,0,17.3,1.2,23,3.5
				c5.8,2.4,9.9,5.4,12.5,8.9c2.6,3.6,4.1,7.2,4.7,10.8c0.6,3.6,0.9,7.7,0.9,12.2V2307.6z"/>
			<path class="st4" d="M1807,2252.7c0.9,14.2,4.5,25.1,10.8,32.7c6.3,7.6,13.8,11.4,22.6,11.4c6.2,0,11.7-1.6,16.7-5
				c5-3.3,9.3-8,13-14c1.6-2.7,2.7-4.5,3.3-5.2c0.7-0.7,1.6-1.1,2.9-1.1c1,0,2,0.4,2.9,1.1c0.9,0.7,1.4,2.1,1.4,4.1
				c0,1.9-0.7,4.8-2.2,8.9c-1.5,4.1-4,8.4-7.3,12.8c-3.4,4.5-7.9,8.2-13.5,11.3c-5.6,3.1-12.2,4.6-20,4.6c-3.4,0-7-0.4-10.7-1.2
				c-3.7-0.8-7.3-2.2-10.9-4.1c-3.6-2-7-4.5-10.2-7.8c-3.2-3.2-6-7.2-8.3-11.9c-2.6-4.9-4.4-10.1-5.4-15.7c-1-5.6-1.5-11.4-1.5-17.4
				c0-7.5,0.7-14.1,1.9-19.8c1.3-5.7,3.1-10.7,5.4-14.9c1-2,2.4-4.2,4.1-6.5c1.7-2.4,4.2-4.9,7.3-7.7c3.1-2.7,7.1-5,11.9-6.9
				c4.8-1.8,10.3-2.8,16.5-2.8c7.9,0,14.6,1.5,20.1,4.4c5.5,2.9,9.8,6.5,12.8,10.8s5.2,8.4,6.5,12.6c1.3,4.2,1.9,7.7,1.9,10.5
				c0,2.6-0.5,4.3-1.6,5.2c-1.1,0.9-2.6,1.4-4.4,1.7h-0.2L1807,2252.7z M1858.4,2234.2L1858.4,2234.2c-0.6-6.9-3.1-12.6-7.4-17.2
				c-4.4-4.6-9.6-6.9-15.6-6.9c-8.3,0-14.9,2.9-19.6,8.6c-4.7,5.8-7.7,13.6-8.8,23.5L1858.4,2234.2z"/>
			<path class="st4" d="M1941.9,2249l0.4,0.2c3.9,1.9,7.1,3.6,9.8,5.3c2.6,1.7,5.2,3.7,7.6,6.2s4.5,5.4,6,9
				c1.6,3.6,2.4,7.7,2.4,12.5c0,4.6-0.9,9-2.7,13.2c-1.8,4.2-4.3,7.8-7.4,10.7c-3.9,3.4-8.1,5.7-12.7,6.8c-4.6,1.1-9,1.6-13.4,1.6
				c-6.7,0-12.6-0.9-17.4-2.7c-4.9-1.8-8.8-4-11.6-6.7c-2.9-2.6-5-5.3-6.2-8.1c-1.3-2.7-2-5-2-6.9c0-2.9,0.9-5.1,2.7-6.8
				c1.8-1.7,3.9-2.5,6.2-2.5c2,0,3.7,0.5,5,1.6s2.6,2.4,3.6,4c0.7,1.2,1.6,2.8,2.8,5c2,3.2,4.4,5.8,7.1,7.8c2.7,2,6.5,3,11.4,3
				c5.3,0,9.4-1.6,12.3-4.8c2.9-3.2,4.3-7.1,4.3-11.5c0-5.7-1.8-10.2-5.3-13.4c-3.5-3.1-8.5-6.2-15-9.2l-0.4-0.2
				c-6-2.9-10.7-5.2-14-7.1c-3.3-1.9-6.4-4.1-9.2-6.6c-2.9-2.5-5.1-5.6-6.8-9.2c-1.6-3.6-2.5-7.7-2.5-12.5c0-8.3,2.9-15.4,8.8-21.2
				c5.9-5.8,14.3-8.7,25.4-8.7c5.7,0,10.7,0.7,15.1,2.2c4.3,1.5,7.8,3.5,10.5,5.8c2.7,2.4,4.7,4.8,6,7.2c1.3,2.4,2,4.6,2,6.5
				c0,2.4-0.8,4.4-2.3,5.9c-1.5,1.5-3.4,2.3-5.7,2.3c-2.4,0-4.3-0.6-5.6-1.8c-1.3-1.2-2.6-3-3.9-5.5l-0.2-0.7
				c-1.9-3.1-4-5.8-6.3-7.9c-2.4-2.1-5.7-3.1-10-3.1c-5.3,0-9.3,1.6-12,5c-2.7,3.3-4.1,6.9-4.1,10.7c0,5.3,1.6,9.4,4.8,12.3
				c3.2,2.9,7.6,5.5,13.2,8L1941.9,2249z"/>
			<path class="st4" d="M2007.4,2177.7c-2.1,2.4-4.9,3.5-8.5,3.5c-3.6,0-6.4-1.1-8.5-3.2c-2.1-2.1-3.1-4.8-3.1-8
				c0-3.3,1.1-6,3.3-8.2c2.2-2.2,5-3.2,8.5-3.2c3,0,5.6,1,7.9,3c2.2,2,3.4,4.6,3.5,7.8C2010.6,2172.6,2009.5,2175.3,2007.4,2177.7z
				 M2008.4,2308L2008.4,2308c0,1.7-0.3,2.8-0.9,3.2c-0.6,0.4-1.7,0.7-3.5,0.7h-11.6c-1.4,0-2.3-0.3-2.7-0.8
				c-0.3-0.5-0.5-1.5-0.5-3.1v-103.5c0-1.6,0.2-2.6,0.5-3.2c0.4-0.6,1.4-0.9,3.1-0.9h11.2c1.7,0,2.9,0.3,3.5,0.8
				c0.6,0.5,0.9,1.6,0.9,3.3V2308z"/>
			<path class="st4" d="M2104.4,2289.3c-0.1,5.3-0.8,9.4-1.9,12.2c-1.2,2.8-3.6,5.2-7.3,7.2c-3.7,2-8.4,3.5-14,4.4
				c-5.6,0.9-11.1,1.4-16.4,1.4c-3,0-6.3-0.2-9.9-0.7c-3.6-0.4-7.6-1.6-12-3.5c-4.4-1.8-8.1-4.8-11.2-8.9c-3.1-4.1-4.6-9.5-4.6-16.2
				c0-6,1.4-11.1,4.1-15.4c2.7-4.2,6.6-7.8,11.6-10.7c5-2.9,10.7-5.5,17-7.8c6.3-2.2,14.9-4.9,25.8-8.1v-11c0-3-0.1-5.7-0.3-8.1
				c-0.2-2.4-0.8-4.7-1.8-7c-1-2.3-2.6-4.2-4.8-5.7c-2.2-1.5-5.3-2.3-9.2-2.3c-2.9,0-5.4,0.5-7.5,1.4c-2.2,0.9-3.9,2.1-5.3,3.6
				c-1.4,1.5-2.4,2.9-3.1,4.3c-0.7,1.4-1.4,2.9-2.2,4.6l-0.2,0.2c-1,3-2.1,5.3-3.4,6.8c-1.3,1.5-3.3,2.3-6,2.3c-2,0-4-0.7-5.8-2.3
				c-1.9-1.5-2.8-3.8-2.8-6.8c0-3.1,1-6.3,2.9-9.4c2-3.1,4.6-5.8,8.1-8.3c7.6-5.3,17-8,28.2-8c7.3,0,13.2,1.1,17.7,3.4
				c4.5,2.3,7.7,5.2,9.7,8.7c2,3.5,3.3,7,3.9,10.5c0.6,3.5,0.9,7.3,0.9,11.5v0.2V2289.3z M2085.6,2253.3L2085.6,2253.3
				c-7.7,2.5-13.6,4.4-17.6,5.9c-4,1.5-7.5,3.3-10.5,5.3c-7.2,4.5-10.8,10.4-10.8,17.9c0,1.3,0.2,2.9,0.5,4.8
				c0.4,1.9,1.2,4.1,2.6,6.6s3.6,4.6,6.7,6.3c3.1,1.8,7.1,2.7,12.2,2.7c3.9,0,7-0.5,9.4-1.5c2.4-1,4.1-2.3,5.2-3.9s1.8-3.2,2-4.8
				c0.3-1.6,0.4-3.5,0.4-5.5V2253.3z"/>
			<polygon class="st4" points="633,2245.6 347.4,2245.6 347.4,2235.5 633,2235.5 			"/>
			<polygon class="st4" points="2487.2,2245.6 2213.7,2245.6 2213.7,2235.5 2487.2,2235.5 			"/>
		</g>
	</g>
</g>
</svg>
